<svg xmlns="http://www.w3.org/2000/svg" viewBox="0 0 512 352.69565217391306" clip-path="url(#clip)" width="512" height="352.69565217391306"><defs><clipPath id="clip" clipPathUnits="objectBoundingBox"><rect x="0" y="0" width="512" height="352.69565217391306"/></clipPath></defs><rect x="0" y="0" width="512" height="352.69565217391306" fill="rgb(219, 197, 166)"/><path d="M2,3L509,3L509,368L2,368Z" fill="rgb(77, 64, 35)" fill-opacity="0.65"/><path d="M18,15L292,15L292,213L18,213Z" fill="rgb(82, 78, 75)" fill-opacity="0.35"/><path d="M121,71L507,71L507,230L121,230Z" fill="rgb(137, 125, 89)" fill-opacity="0.52"/><path d="M344,272L507,272L507,340L344,340Z" fill="rgb(181, 163, 58)" fill-opacity="0.52"/><path d="M236,256L294,256L294,355L236,355Z" fill="rgb(224, 196, 198)" fill-opacity="0.33"/><path d="M104,162L422,162L422,272L104,272Z" fill="rgb(0, 21, 88)" fill-opacity="0.11"/><path d="M3,26L399,26L399,70L3,70Z" fill="rgb(54, 65, 68)" fill-opacity="0.45"/><path d="M398,4L506,4L506,127L398,127Z" fill="rgb(165, 121, 32)" fill-opacity="0.58"/><path d="M394,128L508,128L508,151L394,151Z" fill="rgb(217, 201, 182)" fill-opacity="0.53"/><path d="M69,64L474,64L474,91L69,91Z" fill="rgb(230, 251, 183)" fill-opacity="0.17"/><path d="M254,114L345,114L345,162L254,162Z" fill="rgb(80, 52, 50)" fill-opacity="0.60"/><path d="M192,193L452,193L452,223L192,223Z" fill="rgb(191, 200, 120)" fill-opacity="0.31"/><path d="M368,168L462,168L462,193L368,193Z" fill="rgb(44, 29, 33)" fill-opacity="0.70"/><path d="M1,237L153,237L153,318L1,318Z" fill="rgb(249, 189, 99)" fill-opacity="0.26"/><path d="M73,21L215,21L215,70L73,70Z" fill="rgb(98, 106, 123)" fill-opacity="0.55"/><path d="M218,306L410,306L410,324L218,324Z" fill="rgb(148, 80, 52)" fill-opacity="0.58"/><path d="M335,6L359,6L359,113L335,113Z" fill="rgb(210, 194, 148)" fill-opacity="0.58"/><path d="M152,3L209,3L209,320L152,320Z" fill="rgb(69, 53, 53)" fill-opacity="0.26"/><path d="M183,43L246,43L246,122L183,122Z" fill="rgb(245, 242, 179)" fill-opacity="0.23"/><path d="M261,272L368,272L368,355L261,355Z" fill="rgb(255, 191, 226)" fill-opacity="0.19"/><path d="M69,267L120,261L81,253Z" fill="rgb(32, 0, 8)" fill-opacity="0.68"/><path d="M411,287L487,287L487,307L411,307Z" fill="rgb(67, 75, 0)" fill-opacity="0.56"/><path d="M119,19L282,19L282,46L119,46Z" fill="rgb(36, 22, 4)" fill-opacity="0.38"/><path d="M150,171L289,171L289,231L150,231Z" fill="rgb(132, 114, 92)" fill-opacity="0.97"/><path d="M253,93L310,93L310,138L253,138Z" fill="rgb(76, 38, 0)" fill-opacity="0.43"/><path d="M218,304L351,304L351,327L218,327Z" fill="rgb(131, 50, 25)" fill-opacity="0.42"/><path d="M24,27L71,27L71,131L24,131Z" fill="rgb(47, 15, 0)" fill-opacity="0.34"/><path d="M212,223L253,223L253,263L212,263Z" fill="rgb(92, 63, 66)" fill-opacity="0.82"/><path d="M-12,94L145,94L145,119L-12,119Z" fill="rgb(255, 211, 85)" fill-opacity="0.30"/><path d="M341,87L408,87L408,135L341,135Z" fill="rgb(0, 23, 61)" fill-opacity="0.26"/><path d="M406,340L458,340L458,350L406,350Z" fill="rgb(59, 0, 17)" fill-opacity="0.60"/><path d="M156,212L368,212L368,231L156,231Z" fill="rgb(156, 221, 255)" fill-opacity="0.25"/><path d="M386,197L423,197L423,240L386,240Z" fill="rgb(133, 137, 19)" fill-opacity="0.67"/><path d="M74,14L98,14L98,185L74,185Z" fill="rgb(155, 176, 191)" fill-opacity="0.27"/><path d="M210,272L471,272L471,289L210,289Z" fill="rgb(213, 216, 216)" fill-opacity="0.28"/><path d="M484,1L509,1L509,74L484,74Z" fill="rgb(0, 3, 0)" fill-opacity="0.41"/><path d="M76,127L274,127L274,212L76,212Z" fill="rgb(110, 68, 37)" fill-opacity="0.26"/><path d="M442,128L471,186L439,156Z" fill="rgb(234, 222, 224)" fill-opacity="0.46"/><path d="M447,2L483,2L483,30L447,30Z" fill="rgb(160, 0, 18)" fill-opacity="0.56"/><path d="M10,136L32,136L32,160L10,160Z" fill="rgb(0, 31, 64)" fill-opacity="0.58"/><path d="M153,233L156,233L156,350L153,350Z" fill="rgb(0, 0, 0)" fill-opacity="0.77"/><path d="M242,221L364,221L364,239L242,239Z" fill="rgb(26, 99, 156)" fill-opacity="0.32"/><path d="M402,2L420,2L420,98L402,98Z" fill="rgb(234, 221, 99)" fill-opacity="0.40"/><path d="M54,318L92,318L92,351L54,351Z" fill="rgb(82, 19, 31)" fill-opacity="0.49"/><path d="M440,37L498,37L498,66L440,66Z" fill="rgb(255, 224, 101)" fill-opacity="0.48"/><path d="M313,80L353,80L353,130L313,130Z" fill="rgb(233, 214, 160)" fill-opacity="0.48"/><path d="M28,131L76,131L76,245L28,245Z" fill="rgb(98, 114, 150)" fill-opacity="0.32"/><path d="M314,310L395,310L395,358L314,358Z" fill="rgb(230, 251, 121)" fill-opacity="0.18"/><path d="M412,244L472,244L472,261L412,261Z" fill="rgb(200, 203, 194)" fill-opacity="0.54"/><path d="M2,221L54,221L54,274L2,274Z" fill="rgb(183, 169, 110)" fill-opacity="0.63"/><path d="M47,3L51,3L51,186L47,186Z" fill="rgb(170, 163, 130)" fill-opacity="0.48"/><path d="M18,267L56,267L56,368L18,368Z" fill="rgb(178, 143, 56)" fill-opacity="0.69"/><path d="M18,203L146,203L146,223L18,223Z" fill="rgb(59, 67, 93)" fill-opacity="0.48"/><path d="M372,38L396,38L396,93L372,93Z" fill="rgb(18, 7, 0)" fill-opacity="0.53"/><path d="M426,276L411,285L432,291Z" fill="rgb(0, 0, 0)" fill-opacity="0.48"/><path d="M174,85L198,85L198,95L174,95Z" fill="rgb(222, 245, 255)" fill-opacity="0.55"/><path d="M195,167L271,167L271,203L195,203Z" fill="rgb(51, 58, 50)" fill-opacity="0.36"/><path d="M131,160L168,160L168,206L131,206Z" fill="rgb(224, 255, 221)" fill-opacity="0.21"/><path d="M270,136L295,136L295,205L270,205Z" fill="rgb(233, 151, 151)" fill-opacity="0.33"/><path d="M50,115L101,115L101,169L50,169Z" fill="rgb(81, 66, 77)" fill-opacity="0.61"/><path d="M301,72L306,5L328,53Z" fill="rgb(2, 4, 15)" fill-opacity="0.59"/><path d="M295,154L365,154L365,177L295,177Z" fill="rgb(0, 107, 182)" fill-opacity="0.30"/><path d="M304,251L365,251L365,272L304,272Z" fill="rgb(78, 12, 0)" fill-opacity="0.46"/><path d="M2,169L174,169L174,175L2,175Z" fill="rgb(159, 155, 135)" fill-opacity="0.87"/><path d="M298,302L313,302L313,350L298,350Z" fill="rgb(112, 0, 0)" fill-opacity="0.55"/><path d="M64,286L72,286L72,350L64,350Z" fill="rgb(144, 0, 17)" fill-opacity="0.56"/><path d="M484,11L498,11L498,41L484,41Z" fill="rgb(0, 7, 5)" fill-opacity="0.64"/><path d="M48,2L46,2L46,96L48,96Z" fill="rgb(255, 245, 222)" fill-opacity="0.67"/><path d="M443,85L478,85L478,106L443,106Z" fill="rgb(56, 42, 36)" fill-opacity="0.48"/><path d="M75,22L117,22L117,47L75,47Z" fill="rgb(177, 229, 227)" fill-opacity="0.42"/><path d="M27,247L71,247L71,295L27,295Z" fill="rgb(172, 142, 24)" fill-opacity="0.51"/><path d="M494,87L477,78L511,42Z" fill="rgb(3, 3, 0)" fill-opacity="0.51"/><path d="M346,119L365,119L365,134L346,134Z" fill="rgb(0, 0, 0)" fill-opacity="0.59"/><path d="M264,194L402,194L402,206L264,206Z" fill="rgb(163, 153, 140)" fill-opacity="0.51"/><path d="M510,186L494,160L486,184Z" fill="rgb(0, 0, 11)" fill-opacity="0.60"/><path d="M233,75L246,75L246,174L233,174Z" fill="rgb(228, 250, 255)" fill-opacity="0.32"/><path d="M436,30L435,74L382,44Z" fill="rgb(4, 0, 52)" fill-opacity="0.33"/><path d="M384,188L397,190L394,156Z" fill="rgb(235, 132, 58)" fill-opacity="0.50"/><path d="M112,12L149,12L149,29L112,29Z" fill="rgb(17, 31, 31)" fill-opacity="0.64"/><path d="M209,16L267,16L267,86L209,86Z" fill="rgb(112, 105, 36)" fill-opacity="0.42"/><path d="M97,80L150,80L150,95L97,95Z" fill="rgb(2, 45, 28)" fill-opacity="0.59"/><path d="M243,73L276,73L276,212L243,212Z" fill="rgb(166, 42, 0)" fill-opacity="0.21"/><path d="M217,147L244,147L244,168L217,168Z" fill="rgb(211, 201, 94)" fill-opacity="0.53"/><path d="M74,313L127,313L127,351L74,351Z" fill="rgb(42, 78, 85)" fill-opacity="0.41"/><path d="M156,302L182,302L182,346L156,346Z" fill="rgb(238, 232, 226)" fill-opacity="0.38"/><path d="M199,39L221,39L221,122L199,122Z" fill="rgb(177, 168, 123)" fill-opacity="0.49"/><path d="M150,147L113,101L128,140Z" fill="rgb(239, 219, 192)" fill-opacity="0.42"/><path d="M332,147L317,193L333,190Z" fill="rgb(23, 19, 0)" fill-opacity="0.48"/><path d="M185,314L147,215L210,301Z" fill="rgb(18, 0, 3)" fill-opacity="0.54"/><path d="M209,273L326,273L326,302L209,302Z" fill="rgb(179, 178, 162)" fill-opacity="0.63"/><path d="M96,303L109,282L59,290Z" fill="rgb(52, 47, 62)" fill-opacity="0.46"/><path d="M412,303L445,303L445,339L412,339Z" fill="rgb(172, 174, 0)" fill-opacity="0.59"/><path d="M104,130L43,143L155,136Z" fill="rgb(222, 211, 149)" fill-opacity="0.56"/><path d="M276,72L295,72L295,130L276,130Z" fill="rgb(178, 130, 54)" fill-opacity="0.59"/><path d="M365,20L368,20L368,274L365,274Z" fill="rgb(251, 237, 218)" fill-opacity="0.69"/><path d="M324,335L364,278L367,297Z" fill="rgb(94, 22, 28)" fill-opacity="0.68"/><path d="M32,102L87,102L87,131L32,131Z" fill="rgb(117, 69, 28)" fill-opacity="0.68"/><path d="M107,71L367,71L367,72L107,72Z" fill="rgb(255, 253, 236)" fill-opacity="0.66"/><path d="M91,149L71,146L60,126Z" fill="rgb(242, 255, 237)" fill-opacity="0.45"/><path d="M90,221L129,221L129,227L90,227Z" fill="rgb(23, 0, 22)" fill-opacity="0.61"/><path d="M150,1L152,1L152,365L150,365Z" fill="rgb(217, 203, 181)" fill-opacity="1.00"/><path d="M313,113L327,183L325,90Z" fill="rgb(255, 236, 185)" fill-opacity="0.52"/><path d="M470,290L441,322L449,328Z" fill="rgb(0, 6, 9)" fill-opacity="0.61"/><path d="M264,-36L222,22L259,16Z" fill="rgb(173, 178, 190)" fill-opacity="0.44"/><path d="M346,137L454,137L454,158L346,158Z" fill="rgb(236, 176, 173)" fill-opacity="0.28"/><path d="M467,173L510,251L503,190Z" fill="rgb(205, 197, 192)" fill-opacity="0.45"/><path d="M246,147L265,142L251,119Z" fill="rgb(254, 212, 63)" fill-opacity="0.51"/><path d="M451,211L490,211L490,270L451,270Z" fill="rgb(134, 67, 0)" fill-opacity="0.36"/><path d="M53,110L30,101L27,144Z" fill="rgb(14, 38, 57)" fill-opacity="0.46"/><path d="M284,288L301,288L301,295L284,295Z" fill="rgb(0, 11, 25)" fill-opacity="0.45"/><path d="M368,260L449,260L449,272L368,272Z" fill="rgb(7, 43, 55)" fill-opacity="0.38"/><path d="M368,100L372,100L372,299L368,299Z" fill="rgb(31, 52, 53)" fill-opacity="0.51"/><path d="M330,7L336,7L336,126L330,126Z" fill="rgb(122, 111, 72)" fill-opacity="0.53"/><path d="M72,70L145,70L145,82L72,82Z" fill="rgb(108, 171, 201)" fill-opacity="0.52"/><path d="M451,126L457,168L443,165Z" fill="rgb(249, 234, 206)" fill-opacity="0.55"/><path d="M344,298L341,325L324,284Z" fill="rgb(87, 0, 10)" fill-opacity="0.68"/><path d="M457,136L474,136L474,246L457,246Z" fill="rgb(88, 63, 19)" fill-opacity="0.34"/><path d="M352,247L342,271L334,240Z" fill="rgb(240, 206, 125)" fill-opacity="0.46"/><path d="M183,141L210,182L197,92Z" fill="rgb(17, 65, 44)" fill-opacity="0.57"/><path d="M436,182L477,182L477,193L436,193Z" fill="rgb(0, 0, 5)" fill-opacity="0.76"/><path d="M470,228L482,255L503,232Z" fill="rgb(56, 9, 38)" fill-opacity="0.70"/><path d="M462,134L475,142L453,147Z" fill="rgb(13, 40, 44)" fill-opacity="0.51"/><path d="M82,55L115,55L115,69L82,69Z" fill="rgb(16, 0, 9)" fill-opacity="0.41"/><path d="M297,103L322,134L294,169Z" fill="rgb(0, 10, 8)" fill-opacity="0.52"/><path d="M460,57L467,81L436,92Z" fill="rgb(197, 188, 193)" fill-opacity="0.49"/><path d="M449,298L483,305L440,316Z" fill="rgb(29, 29, 21)" fill-opacity="0.60"/><path d="M259,65L237,57L271,51Z" fill="rgb(255, 232, 40)" fill-opacity="0.43"/><path d="M193,345L177,347L190,323Z" fill="rgb(239, 226, 204)" fill-opacity="0.58"/><path d="M365,2L414,2L414,21L365,21Z" fill="rgb(185, 167, 142)" fill-opacity="0.92"/><path d="M245,13L292,13L292,46L245,46Z" fill="rgb(10, 37, 29)" fill-opacity="0.46"/><path d="M238,261L266,261L266,329L238,329Z" fill="rgb(190, 189, 139)" fill-opacity="0.40"/><path d="M219,73L241,67L224,46Z" fill="rgb(0, 3, 5)" fill-opacity="0.55"/><path d="M107,84L129,47L149,67Z" fill="rgb(152, 195, 197)" fill-opacity="0.66"/><path d="M209,212L211,212L211,277L209,277Z" fill="rgb(255, 255, 255)" fill-opacity="0.51"/><path d="M318,55L364,55L364,69L318,69Z" fill="rgb(162, 161, 108)" fill-opacity="0.63"/><path d="M148,-9L186,7L166,22Z" fill="rgb(188, 180, 169)" fill-opacity="0.50"/><path d="M295,211L336,211L336,259L295,259Z" fill="rgb(72, 42, 58)" fill-opacity="0.34"/><path d="M31,345L36,336L23,338Z" fill="rgb(0, 0, 0)" fill-opacity="0.56"/><path d="M51,94L111,94L111,112L51,112Z" fill="rgb(201, 190, 78)" fill-opacity="0.40"/><path d="M292,3L295,3L295,279L292,279Z" fill="rgb(192, 179, 157)" fill-opacity="1.00"/><path d="M159,16L168,16L168,108L159,108Z" fill="rgb(105, 126, 127)" fill-opacity="0.42"/><path d="M136,4L149,4L149,57L136,57Z" fill="rgb(26, 22, 13)" fill-opacity="0.59"/><path d="M319,350L351,319L315,331Z" fill="rgb(208, 156, 15)" fill-opacity="0.55"/><path d="M296,232L322,215L302,241Z" fill="rgb(255, 255, 210)" fill-opacity="0.43"/><path d="M111,353L105,334L124,331Z" fill="rgb(42, 0, 2)" fill-opacity="0.70"/><path d="M80,268L61,253L33,265Z" fill="rgb(210, 179, 243)" fill-opacity="0.36"/><path d="M17,292L-66,323L59,313Z" fill="rgb(210, 195, 190)" fill-opacity="0.48"/><path d="M374,243L417,243L417,260L374,260Z" fill="rgb(8, 0, 76)" fill-opacity="0.37"/><path d="M493,41L504,41L504,51L493,51Z" fill="rgb(255, 251, 104)" fill-opacity="0.50"/><path d="M219,185L246,179L235,197Z" fill="rgb(232, 212, 41)" fill-opacity="0.42"/><path d="M131,147L104,159L89,141Z" fill="rgb(72, 0, 29)" fill-opacity="0.64"/><path d="M187,310L198,324L166,317Z" fill="rgb(0, 0, 4)" fill-opacity="0.62"/><path d="M92,263L111,276L114,252Z" fill="rgb(112, 2, 33)" fill-opacity="0.65"/><path d="M192,332L260,332L260,350L192,350Z" fill="rgb(42, 49, 53)" fill-opacity="0.43"/><path d="M231,211L188,210L213,199Z" fill="rgb(222, 195, 20)" fill-opacity="0.76"/><path d="M202,129L238,107L224,145Z" fill="rgb(94, 0, 26)" fill-opacity="0.62"/><path d="M395,244L384,223L364,241Z" fill="rgb(255, 243, 255)" fill-opacity="0.29"/><path d="M408,5L422,5L422,97L408,97Z" fill="rgb(255, 226, 56)" fill-opacity="0.26"/><path d="M398,99L428,99L428,130L398,130Z" fill="rgb(102, 88, 53)" fill-opacity="0.63"/><path d="M103,171L150,171L150,199L103,199Z" fill="rgb(82, 84, 75)" fill-opacity="0.80"/><path d="M151,278L162,262L161,309Z" fill="rgb(0, 19, 43)" fill-opacity="0.45"/><path d="M169,126L180,142L196,92Z" fill="rgb(161, 211, 234)" fill-opacity="0.46"/><path d="M490,170L500,165L459,165Z" fill="rgb(0, 1, 45)" fill-opacity="0.55"/><path d="M364,7L365,7L365,349L364,349Z" fill="rgb(25, 14, 7)" fill-opacity="0.58"/><path d="M333,91L346,91L346,108L333,108Z" fill="rgb(24, 2, 0)" fill-opacity="0.38"/><path d="M291,18L281,26L282,39Z" fill="rgb(166, 162, 175)" fill-opacity="0.42"/><path d="M268,226L293,226L293,249L268,249Z" fill="rgb(32, 41, 86)" fill-opacity="0.53"/><path d="M455,314L498,314L498,343L455,343Z" fill="rgb(219, 181, 99)" fill-opacity="0.62"/><path d="M308,322L347,342L310,302Z" fill="rgb(203, 172, 52)" fill-opacity="0.67"/><path d="M76,32L67,95L38,73Z" fill="rgb(0, 0, 12)" fill-opacity="0.55"/><path d="M4,291L32,287L4,271Z" fill="rgb(158, 25, 9)" fill-opacity="0.61"/><path d="M123,314L102,344L84,337Z" fill="rgb(136, 202, 223)" fill-opacity="0.48"/><path d="M35,197L19,189L3,214Z" fill="rgb(255, 230, 174)" fill-opacity="0.44"/><path d="M228,224L248,266L212,230Z" fill="rgb(128, 9, 14)" fill-opacity="0.59"/><path d="M174,240L193,240L193,274L174,274Z" fill="rgb(152, 45, 11)" fill-opacity="0.63"/><path d="M330,307L363,296L346,319Z" fill="rgb(74, 12, 23)" fill-opacity="0.64"/><path d="M90,126L128,126L128,131L90,131Z" fill="rgb(57, 28, 19)" fill-opacity="0.75"/><path d="M338,165L342,150L348,175Z" fill="rgb(0, 0, 4)" fill-opacity="0.52"/><path d="M70,207L48,186L22,189Z" fill="rgb(18, 15, 25)" fill-opacity="0.49"/><path d="M125,55L88,3L121,33Z" fill="rgb(149, 169, 153)" fill-opacity="0.81"/><path d="M468,64L469,76L458,73Z" fill="rgb(0, 0, 7)" fill-opacity="0.58"/><path d="M278,273L293,270L269,260Z" fill="rgb(11, 16, 16)" fill-opacity="0.56"/><path d="M444,194L498,194L498,203L444,203Z" fill="rgb(239, 200, 140)" fill-opacity="0.48"/><path d="M367,21L392,21L392,114L367,114Z" fill="rgb(0, 38, 65)" fill-opacity="0.24"/><path d="M412,37L426,37L429,57Z" fill="rgb(0, 0, 12)" fill-opacity="0.65"/><path d="M230,327L217,314L227,335Z" fill="rgb(236, 247, 240)" fill-opacity="0.42"/><path d="M472,262L430,257L473,249Z" fill="rgb(223, 220, 212)" fill-opacity="0.39"/><path d="M54,29L48,-140L139,10Z" fill="rgb(255, 226, 39)" fill-opacity="0.26"/><path d="M39,118L32,163L59,140Z" fill="rgb(190, 184, 142)" fill-opacity="0.57"/><path d="M110,262L69,196L51,212Z" fill="rgb(173, 145, 130)" fill-opacity="0.49"/><path d="M253,214L242,204L252,190Z" fill="rgb(239, 255, 13)" fill-opacity="0.43"/><path d="M225,212L246,212L204,181Z" fill="rgb(2, 30, 51)" fill-opacity="0.56"/><path d="M410,321L407,308L375,324Z" fill="rgb(30, 59, 34)" fill-opacity="0.50"/><path d="M292,264L233,268L293,246Z" fill="rgb(209, 201, 180)" fill-opacity="0.59"/><path d="M388,66L406,45L389,20Z" fill="rgb(14, 14, 7)" fill-opacity="0.75"/><path d="M290,40L266,64L286,74Z" fill="rgb(8, 18, 30)" fill-opacity="0.62"/><path d="M209,332L227,323L168,448Z" fill="rgb(227, 166, 79)" fill-opacity="0.51"/><path d="M246,73L396,73L396,77L246,77Z" fill="rgb(122, 96, 36)" fill-opacity="0.61"/><path d="M403,86L391,81L400,49Z" fill="rgb(252, 227, 24)" fill-opacity="0.52"/><path d="M64,268L45,274L60,298Z" fill="rgb(255, 241, 11)" fill-opacity="0.47"/><path d="M448,178L440,150L400,162Z" fill="rgb(196, 32, 47)" fill-opacity="0.44"/><path d="M100,302L148,302L148,314L100,314Z" fill="rgb(137, 95, 0)" fill-opacity="0.54"/><path d="M359,198L301,203L366,223Z" fill="rgb(225, 199, 125)" fill-opacity="0.54"/><path d="M332,275L351,267L316,265Z" fill="rgb(207, 196, 33)" fill-opacity="0.45"/><path d="M493,70L508,70L508,126L493,126Z" fill="rgb(163, 131, 12)" fill-opacity="0.60"/><path d="M141,100L116,111L138,131Z" fill="rgb(186, 179, 185)" fill-opacity="0.43"/><path d="M508,3L509,3L509,255L508,255Z" fill="rgb(8, 0, 0)" fill-opacity="0.53"/><path d="M478,291L486,280L493,294Z" fill="rgb(13, 19, 16)" fill-opacity="0.48"/><path d="M245,184L414,184L414,193L245,193Z" fill="rgb(1, 18, 17)" fill-opacity="0.29"/><path d="M113,247L133,247L133,311L113,311Z" fill="rgb(193, 158, 102)" fill-opacity="0.54"/><path d="M79,186L97,186L97,205L79,205Z" fill="rgb(132, 0, 23)" fill-opacity="0.81"/><path d="M460,302L456,258L433,298Z" fill="rgb(197, 175, 35)" fill-opacity="0.51"/><path d="M53,6L6,48L2,2Z" fill="rgb(148, 113, 0)" fill-opacity="0.52"/><path d="M349,175L350,133L369,141Z" fill="rgb(182, 213, 222)" fill-opacity="0.37"/><path d="M181,238L152,226L153,264Z" fill="rgb(27, 0, 6)" fill-opacity="0.55"/><path d="M57,122L72,111L56,109Z" fill="rgb(255, 255, 28)" fill-opacity="0.45"/><path d="M260,195L288,192L287,159Z" fill="rgb(198, 193, 169)" fill-opacity="0.47"/><path d="M33,158L89,158L89,169L33,169Z" fill="rgb(0, 17, 46)" fill-opacity="0.55"/><path d="M169,26L184,26L184,70L169,70Z" fill="rgb(81, 0, 32)" fill-opacity="0.52"/><path d="M6,314L23,337L3,345Z" fill="rgb(0, 117, 0)" fill-opacity="0.47"/><path d="M319,117L299,72L340,112Z" fill="rgb(255, 239, 209)" fill-opacity="0.35"/><path d="M197,133L256,143L208,144Z" fill="rgb(35, 5, 21)" fill-opacity="0.60"/><path d="M156,213L203,213L203,231L156,231Z" fill="rgb(255, 218, 179)" fill-opacity="0.40"/><path d="M146,176L151,134L121,161Z" fill="rgb(171, 139, 4)" fill-opacity="0.50"/><path d="M514,169L462,149L460,161Z" fill="rgb(210, 182, 175)" fill-opacity="0.40"/><path d="M473,91L453,113L468,113Z" fill="rgb(11, 14, 8)" fill-opacity="0.47"/><path d="M271,321L288,309L281,289Z" fill="rgb(187, 199, 197)" fill-opacity="0.74"/><path d="M369,173L384,173L384,209L369,209Z" fill="rgb(39, 112, 148)" fill-opacity="0.49"/><path d="M392,331L410,316L407,347Z" fill="rgb(230, 196, 98)" fill-opacity="0.51"/><path d="M-37,58L4,58L4,364L-37,364Z" fill="rgb(228, 208, 179)" fill-opacity="0.75"/><path d="M239,329L227,354L218,335Z" fill="rgb(34, 114, 157)" fill-opacity="0.57"/><path d="M6,17L2,82L24,101Z" fill="rgb(106, 80, 2)" fill-opacity="0.53"/><path d="M259,189L247,199L271,189Z" fill="rgb(255, 249, 102)" fill-opacity="0.52"/><path d="M214,144L195,152L221,155Z" fill="rgb(235, 221, 93)" fill-opacity="0.55"/><path d="M202,75L221,75L221,95L202,95Z" fill="rgb(154, 134, 2)" fill-opacity="0.63"/><path d="M121,358L151,362L148,314Z" fill="rgb(255, 195, 162)" fill-opacity="0.49"/><path d="M318,176L291,214L323,160Z" fill="rgb(210, 185, 146)" fill-opacity="0.53"/><path d="M48,42L69,80L52,19Z" fill="rgb(2, 0, 10)" fill-opacity="0.62"/><path d="M336,242L319,249L329,270Z" fill="rgb(25, 122, 171)" fill-opacity="0.58"/><path d="M475,269L497,269L497,284L475,284Z" fill="rgb(151, 156, 0)" fill-opacity="0.64"/><path d="M384,159L398,133L394,149Z" fill="rgb(55, 32, 1)" fill-opacity="0.46"/><path d="M152,346L212,346L166,351Z" fill="rgb(3, 1, 6)" fill-opacity="0.75"/><path d="M317,285L335,317L313,316Z" fill="rgb(198, 207, 171)" fill-opacity="0.57"/><path d="M239,238L269,242L255,249Z" fill="rgb(189, 162, 12)" fill-opacity="0.57"/><path d="M32,110L15,96L10,141Z" fill="rgb(204, 197, 70)" fill-opacity="0.47"/><path d="M147,257L153,283L107,286Z" fill="rgb(185, 161, 138)" fill-opacity="0.68"/><path d="M242,147L207,128L239,136Z" fill="rgb(63, 1, 23)" fill-opacity="0.44"/><path d="M462,184L467,166L491,179Z" fill="rgb(252, 253, 255)" fill-opacity="0.35"/><path d="M473,229L461,194L437,231Z" fill="rgb(171, 106, 0)" fill-opacity="0.47"/><path d="M195,167L213,164L181,157Z" fill="rgb(178, 199, 213)" fill-opacity="0.43"/><path d="M105,212L67,202L81,221Z" fill="rgb(21, 68, 118)" fill-opacity="0.42"/><path d="M395,136L371,112L369,143Z" fill="rgb(184, 100, 16)" fill-opacity="0.55"/><path d="M97,85L97,38L121,58Z" fill="rgb(57, 43, 61)" fill-opacity="0.75"/><path d="M370,329L389,352L367,344Z" fill="rgb(108, 76, 34)" fill-opacity="0.66"/><path d="M114,225L129,246L152,236Z" fill="rgb(26, 87, 98)" fill-opacity="0.51"/><path d="M310,166L327,147L334,154Z" fill="rgb(4, 0, 3)" fill-opacity="0.55"/><path d="M27,200L14,195L18,206Z" fill="rgb(255, 251, 224)" fill-opacity="0.59"/><path d="M3,130L20,137L3,147Z" fill="rgb(148, 122, 34)" fill-opacity="0.49"/><path d="M496,103L479,89L478,97Z" fill="rgb(248, 238, 227)" fill-opacity="0.62"/><path d="M273,112L269,102L278,95Z" fill="rgb(212, 177, 32)" fill-opacity="0.60"/><path d="M222,168L244,164L223,187Z" fill="rgb(0, 46, 83)" fill-opacity="0.47"/><path d="M58,274L476,274L476,275L58,275Z" fill="rgb(28, 4, 19)" fill-opacity="0.24"/><path d="M191,272L220,245L240,266Z" fill="rgb(38, 112, 158)" fill-opacity="0.43"/><path d="M330,38L363,38L363,55L330,55Z" fill="rgb(169, 200, 212)" fill-opacity="0.34"/><path d="M498,170L477,187L511,182Z" fill="rgb(0, 6, 32)" fill-opacity="0.48"/><path d="M425,184L429,144L413,192Z" fill="rgb(170, 23, 14)" fill-opacity="0.51"/><path d="M258,152L257,164L264,155Z" fill="rgb(228, 180, 201)" fill-opacity="0.49"/><path d="M36,82L21,77L9,56Z" fill="rgb(42, 94, 123)" fill-opacity="0.72"/><path d="M139,55L112,19L149,43Z" fill="rgb(10, 6, 6)" fill-opacity="0.83"/><path d="M204,214L210,215L184,318Z" fill="rgb(41, 55, 59)" fill-opacity="0.60"/><path d="M175,303L155,262L172,280Z" fill="rgb(175, 231, 251)" fill-opacity="0.44"/><path d="M398,242L394,223L454,224Z" fill="rgb(158, 159, 17)" fill-opacity="0.78"/><path d="M68,14L45,25L85,29Z" fill="rgb(181, 167, 166)" fill-opacity="0.61"/><path d="M325,152L313,164L310,183Z" fill="rgb(15, 0, 0)" fill-opacity="0.54"/><path d="M384,121L427,121L427,128L384,128Z" fill="rgb(248, 209, 155)" fill-opacity="0.28"/><path d="M78,224L6,206L20,220Z" fill="rgb(52, 48, 48)" fill-opacity="0.60"/><path d="M180,3L428,3L428,4L180,4Z" fill="rgb(0, 0, 0)" fill-opacity="0.27"/><path d="M241,148L270,168L278,205Z" fill="rgb(69, 0, 20)" fill-opacity="0.52"/><path d="M353,241L359,230L345,235Z" fill="rgb(176, 194, 199)" fill-opacity="0.65"/><path d="M453,314L495,281L481,305Z" fill="rgb(2, 2, 22)" fill-opacity="0.53"/><path d="M292,185L278,213L295,212Z" fill="rgb(87, 35, 26)" fill-opacity="0.45"/><path d="M109,121L123,107L129,128Z" fill="rgb(222, 199, 176)" fill-opacity="0.55"/><path d="M248,309L261,306L236,342Z" fill="rgb(216, 164, 0)" fill-opacity="0.54"/><path d="M71,315L77,315L77,340L71,340Z" fill="rgb(188, 192, 170)" fill-opacity="0.53"/><path d="M162,214L189,162L207,184Z" fill="rgb(163, 88, 15)" fill-opacity="0.51"/><path d="M24,60L17,31L47,13Z" fill="rgb(107, 0, 12)" fill-opacity="0.55"/><path d="M11,339L12,350L26,341Z" fill="rgb(255, 244, 0)" fill-opacity="0.50"/><path d="M410,64L403,47L423,45Z" fill="rgb(241, 191, 207)" fill-opacity="0.44"/><path d="M380,318L359,300L295,405Z" fill="rgb(184, 187, 202)" fill-opacity="0.37"/><path d="M96,236L131,222L122,236Z" fill="rgb(38, 36, 5)" fill-opacity="0.66"/><path d="M337,73L330,85L323,73Z" fill="rgb(1, 2, 0)" fill-opacity="0.50"/><path d="M279,317L311,339L305,302Z" fill="rgb(126, 0, 6)" fill-opacity="0.54"/><path d="M62,197L48,198L41,235Z" fill="rgb(8, 3, 9)" fill-opacity="0.42"/><path d="M407,39L406,20L390,23Z" fill="rgb(255, 239, 8)" fill-opacity="0.53"/><path d="M259,139L249,103L293,129Z" fill="rgb(0, 0, 38)" fill-opacity="0.37"/><path d="M19,101L11,120L18,122Z" fill="rgb(222, 208, 213)" fill-opacity="0.54"/><path d="M310,213L356,249L335,211Z" fill="rgb(14, 98, 154)" fill-opacity="0.43"/><path d="M319,158L326,148L317,141Z" fill="rgb(255, 255, 252)" fill-opacity="0.48"/><path d="M298,242L321,242L321,263L298,263Z" fill="rgb(149, 0, 0)" fill-opacity="0.54"/><path d="M213,36L213,15L203,16Z" fill="rgb(255, 236, 119)" fill-opacity="0.46"/><path d="M194,323L205,336L192,361Z" fill="rgb(0, 0, 0)" fill-opacity="0.57"/><path d="M171,321L128,312L140,301Z" fill="rgb(72, 1, 38)" fill-opacity="0.45"/><path d="M472,92L455,94L460,104Z" fill="rgb(254, 180, 52)" fill-opacity="0.46"/><path d="M246,74L291,70L250,113Z" fill="rgb(190, 158, 40)" fill-opacity="0.44"/><path d="M166,184L193,184L193,190L166,190Z" fill="rgb(84, 11, 1)" fill-opacity="0.55"/><path d="M96,219L115,202L106,227Z" fill="rgb(136, 186, 194)" fill-opacity="0.51"/><path d="M78,36L66,47L64,27Z" fill="rgb(15, 0, 0)" fill-opacity="0.54"/><path d="M153,98L157,98L157,144L153,144Z" fill="rgb(12, 8, 9)" fill-opacity="0.62"/><path d="M123,292L129,289L118,283Z" fill="rgb(0, 0, 10)" fill-opacity="0.49"/><path d="M145,3L150,3L150,132L145,132Z" fill="rgb(75, 50, 20)" fill-opacity="0.45"/><path d="M389,84L368,15L369,58Z" fill="rgb(0, 0, 4)" fill-opacity="0.63"/><path d="M90,87L110,61L102,97Z" fill="rgb(52, 64, 99)" fill-opacity="0.53"/><path d="M374,119L412,112L378,91Z" fill="rgb(0, 123, 213)" fill-opacity="0.33"/><path d="M194,343L191,321L160,321Z" fill="rgb(221, 208, 187)" fill-opacity="0.46"/><path d="M152,290L146,304L143,256Z" fill="rgb(205, 200, 186)" fill-opacity="0.55"/><path d="M198,135L202,97L216,98Z" fill="rgb(186, 189, 190)" fill-opacity="0.49"/><path d="M477,260L470,276L464,262Z" fill="rgb(11, 54, 91)" fill-opacity="0.44"/><path d="M194,55L152,66L161,71Z" fill="rgb(1, 27, 38)" fill-opacity="0.62"/><path d="M397,159L409,144L391,177Z" fill="rgb(33, 41, 54)" fill-opacity="0.47"/><path d="M407,145L401,153L420,150Z" fill="rgb(34, 31, 20)" fill-opacity="0.50"/><path d="M91,349L502,349L502,350L91,350Z" fill="rgb(9, 0, 0)" fill-opacity="0.50"/><path d="M104,330L84,329L92,315Z" fill="rgb(10, 17, 14)" fill-opacity="0.58"/><path d="M431,163L447,174L422,168Z" fill="rgb(237, 198, 131)" fill-opacity="0.46"/><path d="M450,195L451,195L451,273L450,273Z" fill="rgb(255, 249, 219)" fill-opacity="0.59"/><path d="M307,103L315,88L311,113Z" fill="rgb(195, 180, 75)" fill-opacity="0.51"/><path d="M214,111L212,137L224,103Z" fill="rgb(169, 173, 186)" fill-opacity="0.53"/><path d="M194,38L217,64L182,55Z" fill="rgb(205, 193, 192)" fill-opacity="0.43"/><path d="M225,100L242,70L243,108Z" fill="rgb(201, 220, 233)" fill-opacity="0.51"/><path d="M381,175L393,175L402,129Z" fill="rgb(210, 204, 154)" fill-opacity="0.44"/><path d="M209,56L229,64L210,36Z" fill="rgb(20, 29, 18)" fill-opacity="0.46"/><path d="M444,99L450,98L456,89Z" fill="rgb(251, 249, 252)" fill-opacity="0.54"/><path d="M511,344L520,381L494,353Z" fill="rgb(208, 178, 154)" fill-opacity="0.73"/><path d="M387,229L390,242L393,232Z" fill="rgb(255, 242, 243)" fill-opacity="0.52"/><path d="M216,114L225,124L229,107Z" fill="rgb(90, 0, 28)" fill-opacity="0.54"/><path d="M369,66L378,66L378,90L369,90Z" fill="rgb(193, 134, 108)" fill-opacity="0.55"/><path d="M137,90L223,78L159,71Z" fill="rgb(174, 138, 0)" fill-opacity="0.45"/><path d="M41,294L61,294L61,323L41,323Z" fill="rgb(177, 138, 129)" fill-opacity="0.70"/><path d="M208,306L190,287L209,291Z" fill="rgb(0, 6, 12)" fill-opacity="0.61"/><path d="M100,47L99,62L73,47Z" fill="rgb(162, 240, 244)" fill-opacity="0.40"/><path d="M373,261L396,247L396,270Z" fill="rgb(88, 157, 150)" fill-opacity="0.59"/><path d="M150,105L149,96L99,96Z" fill="rgb(97, 57, 0)" fill-opacity="0.57"/><path d="M312,168L287,166L309,150Z" fill="rgb(82, 159, 198)" fill-opacity="0.45"/><path d="M375,245L406,238L369,263Z" fill="rgb(86, 2, 14)" fill-opacity="0.45"/><path d="M151,146L183,146L183,144L151,144Z" fill="rgb(207, 215, 198)" fill-opacity="0.62"/><path d="M185,255L178,265L173,246Z" fill="rgb(227, 236, 43)" fill-opacity="0.50"/><path d="M324,117L343,112L334,128Z" fill="rgb(0, 0, 0)" fill-opacity="0.35"/><path d="M65,169L106,169L106,185L65,185Z" fill="rgb(255, 204, 171)" fill-opacity="0.26"/><path d="M56,97L61,72L49,88Z" fill="rgb(62, 160, 210)" fill-opacity="0.40"/><path d="M327,90L342,94L342,72Z" fill="rgb(255, 255, 229)" fill-opacity="0.46"/><path d="M332,40L329,33L302,53Z" fill="rgb(5, 12, 19)" fill-opacity="0.65"/><path d="M31,152L39,130L6,157Z" fill="rgb(4, 12, 22)" fill-opacity="0.63"/><path d="M249,248L242,231L223,225Z" fill="rgb(190, 172, 11)" fill-opacity="0.40"/><path d="M90,130L86,138L99,136Z" fill="rgb(23, 25, 33)" fill-opacity="0.64"/><path d="M270,208L274,205L258,186Z" fill="rgb(240, 201, 171)" fill-opacity="0.57"/><path d="M432,295L430,279L405,288Z" fill="rgb(42, 40, 4)" fill-opacity="0.42"/><path d="M9,228L25,219L53,232Z" fill="rgb(255, 255, 243)" fill-opacity="0.45"/><path d="M241,213L274,230L311,213Z" fill="rgb(255, 224, 164)" fill-opacity="0.31"/><path d="M371,271L351,298L316,274Z" fill="rgb(187, 192, 189)" fill-opacity="0.51"/><path d="M354,240L348,276L366,253Z" fill="rgb(26, 0, 33)" fill-opacity="0.48"/><path d="M430,215L401,283L421,255Z" fill="rgb(107, 141, 145)" fill-opacity="0.58"/><path d="M305,267L297,273L295,249Z" fill="rgb(214, 190, 53)" fill-opacity="0.60"/><path d="M68,109L111,109L111,126L68,126Z" fill="rgb(123, 4, 0)" fill-opacity="0.34"/><path d="M75,351L88,339L73,326Z" fill="rgb(44, 41, 0)" fill-opacity="0.44"/><path d="M363,123L339,127L341,144Z" fill="rgb(0, 2, 0)" fill-opacity="0.58"/><path d="M339,132L359,95L351,76Z" fill="rgb(255, 234, 182)" fill-opacity="0.55"/><path d="M70,273L91,264L78,285Z" fill="rgb(255, 191, 170)" fill-opacity="0.49"/><path d="M211,220L241,213L263,240Z" fill="rgb(55, 86, 106)" fill-opacity="0.48"/><path d="M469,17L473,27L478,13Z" fill="rgb(214, 168, 76)" fill-opacity="0.50"/><path d="M5,256L50,254L3,237Z" fill="rgb(118, 128, 6)" fill-opacity="0.45"/><path d="M163,170L164,206L152,198Z" fill="rgb(229, 197, 164)" fill-opacity="0.58"/><path d="M273,56L265,47L280,43Z" fill="rgb(165, 181, 203)" fill-opacity="0.47"/><path d="M396,29L428,8L423,32Z" fill="rgb(241, 210, 9)" fill-opacity="0.64"/><path d="M41,329L48,346L27,350Z" fill="rgb(204, 172, 2)" fill-opacity="0.57"/><path d="M241,102L230,127L249,150Z" fill="rgb(191, 211, 221)" fill-opacity="0.43"/><path d="M235,345L269,313L253,342Z" fill="rgb(183, 161, 174)" fill-opacity="0.45"/><path d="M337,279L303,303L297,283Z" fill="rgb(191, 199, 191)" fill-opacity="0.54"/><path d="M397,82L420,85L412,68Z" fill="rgb(188, 184, 255)" fill-opacity="0.39"/><path d="M336,9L332,20L294,8Z" fill="rgb(36, 40, 13)" fill-opacity="0.48"/><path d="M382,196L403,196L403,209L382,209Z" fill="rgb(0, 62, 40)" fill-opacity="0.30"/><path d="M175,215L201,204L222,161Z" fill="rgb(12, 67, 119)" fill-opacity="0.40"/><path d="M183,206L198,212L152,211Z" fill="rgb(57, 17, 21)" fill-opacity="0.57"/><path d="M274,192L260,198L290,172Z" fill="rgb(236, 228, 198)" fill-opacity="0.41"/><path d="M427,18L448,-14L449,16Z" fill="rgb(169, 179, 126)" fill-opacity="0.51"/><path d="M494,218L480,219L484,204Z" fill="rgb(227, 242, 99)" fill-opacity="0.46"/><path d="M282,272L291,260L299,272Z" fill="rgb(0, 0, 0)" fill-opacity="0.37"/><path d="M318,342L334,332L326,347Z" fill="rgb(87, 64, 27)" fill-opacity="0.54"/><path d="M61,132L49,140L73,143Z" fill="rgb(183, 189, 191)" fill-opacity="0.53"/><path d="M459,161L457,170L480,168Z" fill="rgb(0, 20, 58)" fill-opacity="0.52"/><path d="M74,269L74,252L98,258Z" fill="rgb(24, 0, 6)" fill-opacity="0.64"/><path d="M23,317L7,317L43,343Z" fill="rgb(218, 203, 0)" fill-opacity="0.54"/><path d="M310,250L324,239L316,236Z" fill="rgb(255, 245, 78)" fill-opacity="0.50"/><path d="M32,62L41,62L41,93L32,93Z" fill="rgb(152, 96, 15)" fill-opacity="0.53"/><path d="M78,91L69,87L72,67Z" fill="rgb(210, 230, 231)" fill-opacity="0.48"/><path d="M58,193L48,200L55,187Z" fill="rgb(202, 180, 192)" fill-opacity="0.51"/><path d="M149,142L130,129L133,160Z" fill="rgb(255, 219, 137)" fill-opacity="0.30"/><path d="M97,327L101,343L86,330Z" fill="rgb(135, 180, 191)" fill-opacity="0.60"/><path d="M32,95L25,78L53,85Z" fill="rgb(32, 21, 25)" fill-opacity="0.44"/><path d="M126,105L108,103L119,97Z" fill="rgb(86, 55, 1)" fill-opacity="0.49"/><path d="M201,3L180,4L214,43Z" fill="rgb(6, 20, 12)" fill-opacity="0.36"/><path d="M176,123L157,114L167,158Z" fill="rgb(60, 54, 53)" fill-opacity="0.66"/><path d="M363,104L351,114L362,137Z" fill="rgb(3, 1, 0)" fill-opacity="0.61"/><path d="M270,164L296,150L246,145Z" fill="rgb(157, 6, 82)" fill-opacity="0.49"/><path d="M124,265L124,246L156,251Z" fill="rgb(147, 102, 1)" fill-opacity="0.54"/><path d="M469,316L500,327L499,285Z" fill="rgb(204, 160, 43)" fill-opacity="0.75"/><path d="M505,266L485,227L493,257Z" fill="rgb(198, 254, 249)" fill-opacity="0.30"/><path d="M453,81L423,108L420,69Z" fill="rgb(248, 212, 57)" fill-opacity="0.38"/><path d="M282,165L281,187L268,162Z" fill="rgb(255, 255, 250)" fill-opacity="0.30"/><path d="M110,210L103,220L126,214Z" fill="rgb(76, 0, 19)" fill-opacity="0.50"/><path d="M431,147L415,167L443,157Z" fill="rgb(144, 0, 18)" fill-opacity="0.54"/><path d="M445,318L450,318L450,343L445,343Z" fill="rgb(6, 0, 0)" fill-opacity="0.61"/><path d="M51,147L46,158L27,152Z" fill="rgb(177, 168, 156)" fill-opacity="0.59"/><path d="M405,206L421,208L405,220Z" fill="rgb(32, 39, 42)" fill-opacity="0.51"/><path d="M143,232L146,185L122,239Z" fill="rgb(46, 117, 125)" fill-opacity="0.50"/><path d="M468,138L456,138L467,147Z" fill="rgb(7, 1, 0)" fill-opacity="0.46"/><path d="M393,131L411,131L411,136L393,136Z" fill="rgb(232, 210, 181)" fill-opacity="0.56"/><path d="M125,137L122,146L88,141Z" fill="rgb(9, 48, 106)" fill-opacity="0.51"/><path d="M372,210L422,210L422,228L372,228Z" fill="rgb(101, 106, 0)" fill-opacity="0.36"/><path d="M325,208L296,216L297,204Z" fill="rgb(237, 208, 57)" fill-opacity="0.66"/><path d="M333,216L355,226L341,192Z" fill="rgb(179, 170, 175)" fill-opacity="0.52"/><path d="M418,67L426,47L429,78Z" fill="rgb(0, 0, 0)" fill-opacity="0.34"/><path d="M398,294L404,287L415,298Z" fill="rgb(214, 200, 216)" fill-opacity="0.44"/><path d="M31,279L48,266L31,263Z" fill="rgb(101, 17, 10)" fill-opacity="0.52"/><path d="M501,54L510,61L469,88Z" fill="rgb(8, 0, 7)" fill-opacity="0.60"/><path d="M345,273L347,255L334,267Z" fill="rgb(220, 196, 22)" fill-opacity="0.59"/><path d="M418,183L417,168L378,164Z" fill="rgb(0, 17, 29)" fill-opacity="0.55"/><path d="M27,111L24,104L31,95Z" fill="rgb(41, 0, 2)" fill-opacity="0.53"/><path d="M36,306L24,285L33,321Z" fill="rgb(138, 91, 12)" fill-opacity="0.60"/><path d="M290,87L263,98L285,80Z" fill="rgb(129, 7, 10)" fill-opacity="0.64"/><path d="M475,243L450,251L470,259Z" fill="rgb(228, 199, 155)" fill-opacity="0.47"/><path d="M188,191L232,191L232,200L188,200Z" fill="rgb(0, 99, 165)" fill-opacity="0.30"/><path d="M479,263L491,254L476,251Z" fill="rgb(255, 169, 7)" fill-opacity="0.47"/><path d="M430,28L430,15L448,39Z" fill="rgb(119, 54, 4)" fill-opacity="0.57"/><path d="M294,193L519,193L519,195L294,195Z" fill="rgb(254, 236, 223)" fill-opacity="0.53"/><path d="M317,15L319,39L326,21Z" fill="rgb(221, 201, 70)" fill-opacity="0.46"/><path d="M97,112L84,95L122,95Z" fill="rgb(175, 160, 192)" fill-opacity="0.41"/><path d="M131,131L137,126L146,131Z" fill="rgb(0, 0, 2)" fill-opacity="0.57"/><path d="M105,199L72,210L85,190Z" fill="rgb(139, 8, 30)" fill-opacity="0.68"/><path d="M319,93L298,95L326,89Z" fill="rgb(11, 14, 0)" fill-opacity="0.47"/><path d="M389,263L407,283L367,317Z" fill="rgb(187, 146, 49)" fill-opacity="0.49"/><path d="M396,320L417,296L367,309Z" fill="rgb(140, 157, 1)" fill-opacity="0.47"/><path d="M50,124L33,130L50,114Z" fill="rgb(221, 241, 0)" fill-opacity="0.39"/><path d="M450,228L414,239L450,247Z" fill="rgb(46, 115, 136)" fill-opacity="0.49"/><path d="M230,331L241,310L217,301Z" fill="rgb(145, 0, 26)" fill-opacity="0.60"/><path d="M382,50L386,70L387,38Z" fill="rgb(255, 249, 33)" fill-opacity="0.54"/><path d="M66,162L74,144L43,168Z" fill="rgb(68, 139, 162)" fill-opacity="0.48"/><path d="M367,194L310,193L342,185Z" fill="rgb(0, 17, 2)" fill-opacity="0.52"/><path d="M383,84L420,90L390,102Z" fill="rgb(60, 50, 8)" fill-opacity="0.52"/><path d="M221,235L187,234L202,240Z" fill="rgb(150, 181, 160)" fill-opacity="0.48"/><path d="M172,277L189,265L186,297Z" fill="rgb(5, 0, 6)" fill-opacity="0.51"/><path d="M123,322L98,321L116,333Z" fill="rgb(137, 183, 185)" fill-opacity="0.62"/><path d="M98,17L103,50L112,49Z" fill="rgb(137, 186, 199)" fill-opacity="0.46"/><path d="M300,112L307,94L294,90Z" fill="rgb(0, 0, 0)" fill-opacity="0.46"/><path d="M341,139L365,119L365,104Z" fill="rgb(4, 2, 5)" fill-opacity="0.59"/><path d="M131,289L141,289L141,305L131,305Z" fill="rgb(181, 174, 0)" fill-opacity="0.45"/><path d="M91,86L75,38L71,93Z" fill="rgb(143, 181, 186)" fill-opacity="0.68"/><path d="M213,29L226,27L194,9Z" fill="rgb(185, 159, 73)" fill-opacity="0.50"/><path d="M482,308L445,330L468,307Z" fill="rgb(209, 202, 194)" fill-opacity="0.48"/><path d="M496,143L487,151L537,147Z" fill="rgb(255, 246, 213)" fill-opacity="0.47"/><path d="M397,83L383,68L384,56Z" fill="rgb(248, 219, 28)" fill-opacity="0.53"/><path d="M108,133L97,128L95,135Z" fill="rgb(255, 235, 0)" fill-opacity="0.61"/><path d="M97,241L91,217L66,238Z" fill="rgb(170, 122, 66)" fill-opacity="0.81"/><path d="M519,252L490,261L486,249Z" fill="rgb(190, 195, 158)" fill-opacity="0.55"/><path d="M481,45L444,49L454,19Z" fill="rgb(252, 203, 90)" fill-opacity="0.34"/><path d="M131,206L136,212L109,217Z" fill="rgb(174, 5, 26)" fill-opacity="0.48"/><path d="M269,318L263,327L274,326Z" fill="rgb(61, 0, 0)" fill-opacity="0.49"/><path d="M92,186L104,194L104,181Z" fill="rgb(212, 173, 151)" fill-opacity="0.48"/><path d="M456,203L436,225L417,208Z" fill="rgb(147, 175, 249)" fill-opacity="0.32"/><path d="M87,128L72,112L77,138Z" fill="rgb(90, 0, 17)" fill-opacity="0.52"/><path d="M243,180L269,158L269,177Z" fill="rgb(57, 0, 15)" fill-opacity="0.55"/><path d="M286,155L290,167L292,149Z" fill="rgb(205, 207, 151)" fill-opacity="0.48"/><path d="M12,204L4,196L14,180Z" fill="rgb(29, 25, 36)" fill-opacity="0.50"/><path d="M69,140L102,154L89,161Z" fill="rgb(148, 208, 215)" fill-opacity="0.46"/><path d="M47,12L43,119L41,-1Z" fill="rgb(3, 0, 0)" fill-opacity="0.49"/><path d="M237,177L221,186L223,172Z" fill="rgb(6, 9, 18)" fill-opacity="0.53"/><path d="M372,162L393,153L407,160Z" fill="rgb(255, 251, 234)" fill-opacity="0.30"/><path d="M266,2L256,19L271,6Z" fill="rgb(0, 6, 28)" fill-opacity="0.50"/><path d="M79,159L72,165L111,164Z" fill="rgb(23, 22, 17)" fill-opacity="0.48"/><path d="M50,330L35,320L49,323Z" fill="rgb(0, 9, 46)" fill-opacity="0.57"/><path d="M231,60L239,43L225,35Z" fill="rgb(183, 147, 16)" fill-opacity="0.50"/><path d="M161,294L180,304L196,285Z" fill="rgb(95, 136, 125)" fill-opacity="0.43"/><path d="M41,296L51,285L30,275Z" fill="rgb(81, 65, 35)" fill-opacity="0.53"/><path d="M290,224L278,218L292,221Z" fill="rgb(248, 222, 204)" fill-opacity="0.56"/><path d="M23,278L-41,253L31,258Z" fill="rgb(213, 195, 195)" fill-opacity="0.43"/><path d="M186,52L172,42L185,20Z" fill="rgb(190, 13, 87)" fill-opacity="0.45"/><path d="M482,31L472,41L467,22Z" fill="rgb(148, 0, 25)" fill-opacity="0.53"/><path d="M18,100L62,102L47,115Z" fill="rgb(90, 17, 26)" fill-opacity="0.56"/><path d="M253,127L282,85L250,109Z" fill="rgb(94, 2, 22)" fill-opacity="0.53"/><path d="M215,190L206,161L226,164Z" fill="rgb(110, 139, 152)" fill-opacity="0.49"/><path d="M232,54L242,56L255,45Z" fill="rgb(194, 172, 19)" fill-opacity="0.67"/><path d="M504,237L498,252L488,233Z" fill="rgb(50, 0, 28)" fill-opacity="0.50"/><path d="M28,341L46,336L34,342Z" fill="rgb(19, 0, 15)" fill-opacity="0.48"/><path d="M143,321L113,372L155,357Z" fill="rgb(202, 156, 125)" fill-opacity="0.78"/><path d="M317,127L316,115L307,130Z" fill="rgb(108, 101, 0)" fill-opacity="0.47"/><path d="M73,230L67,248L52,231Z" fill="rgb(66, 70, 64)" fill-opacity="0.51"/><path d="M236,156L232,143L199,153Z" fill="rgb(206, 185, 163)" fill-opacity="0.42"/><path d="M504,24L479,54L475,9Z" fill="rgb(27, 37, 15)" fill-opacity="0.39"/><path d="M456,64L442,47L432,77Z" fill="rgb(214, 142, 1)" fill-opacity="0.49"/><path d="M472,104L495,94L501,116Z" fill="rgb(238, 204, 37)" fill-opacity="0.38"/><path d="M413,265L390,266L408,236Z" fill="rgb(94, 0, 17)" fill-opacity="0.47"/><path d="M202,287L190,287L203,268Z" fill="rgb(213, 233, 168)" fill-opacity="0.39"/></svg>