<svg xmlns="http://www.w3.org/2000/svg" viewBox="0 0 512 287.9323467230444" clip-path="url(#clip)" width="1920.0000000000002" height="1079.7463002114166"><defs><clipPath id="clip" clipPathUnits="objectBoundingBox"><rect x="0" y="0" width="512" height="287.9323467230444"/></clipPath></defs><rect x="0" y="0" width="512" height="287.9323467230444" fill="rgb(122, 80, 66)"/><path d="M113,102L484,102L484,299L113,299Z" fill="rgb(169, 128, 121)" fill-opacity="0.59"/><path d="M9,48L267,48L267,298L9,298Z" fill="rgb(168, 131, 114)" fill-opacity="0.47"/><path d="M430,-14L535,-14L535,292L430,292Z" fill="rgb(100, 8, 0)" fill-opacity="0.26"/><path d="M56,117L411,117L411,166L56,166Z" fill="rgb(135, 106, 106)" fill-opacity="1.00"/><path d="M233,47L403,47L403,123L233,123Z" fill="rgb(126, 95, 63)" fill-opacity="0.80"/><path d="M307,131L350,131L350,217L307,217Z" fill="rgb(173, 162, 213)" fill-opacity="0.30"/><path d="M101,107L161,107L161,223L101,223Z" fill="rgb(145, 31, 0)" fill-opacity="0.27"/><path d="M60,158L242,158L242,174L60,174Z" fill="rgb(167, 131, 128)" fill-opacity="1.00"/><path d="M70,173L162,173L162,203L70,203Z" fill="rgb(255, 73, 34)" fill-opacity="0.44"/><path d="M311,193L391,193L391,276L311,276Z" fill="rgb(168, 63, 2)" fill-opacity="0.26"/><path d="M122,50L224,50L224,81L122,81Z" fill="rgb(231, 150, 145)" fill-opacity="0.49"/><path d="M152,228L228,228L228,247L152,247Z" fill="rgb(199, 190, 182)" fill-opacity="0.53"/><path d="M394,239L494,239L494,258L394,258Z" fill="rgb(140, 122, 118)" fill-opacity="1.00"/><path d="M318,31L437,31L437,120L318,120Z" fill="rgb(151, 117, 70)" fill-opacity="0.43"/><path d="M227,193L285,193L285,215L227,215Z" fill="rgb(243, 229, 253)" fill-opacity="0.42"/><path d="M166,234L270,234L270,322L166,322Z" fill="rgb(162, 152, 140)" fill-opacity="0.80"/><path d="M223,68L368,68L368,95L223,95Z" fill="rgb(110, 89, 56)" fill-opacity="1.00"/><path d="M0,-7L40,-7L40,93L0,93Z" fill="rgb(81, 2, 0)" fill-opacity="0.44"/><path d="M279,209L302,209L302,280L279,280Z" fill="rgb(98, 44, 0)" fill-opacity="0.35"/><path d="M247,124L332,124L332,150L247,150Z" fill="rgb(251, 225, 211)" fill-opacity="0.24"/><path d="M207,131L246,131L246,163L207,163Z" fill="rgb(26, 4, 9)" fill-opacity="0.46"/><path d="M199,202L214,202L214,236L199,236Z" fill="rgb(186, 26, 25)" fill-opacity="0.77"/><path d="M52,205L150,205L150,230L52,230Z" fill="rgb(0, 64, 64)" fill-opacity="0.28"/><path d="M407,128L445,128L445,147L407,147Z" fill="rgb(30, 26, 2)" fill-opacity="0.63"/><path d="M83,166L99,166L99,240L83,240Z" fill="rgb(255, 225, 158)" fill-opacity="0.22"/><path d="M46,36L120,36L120,63L46,63Z" fill="rgb(161, 84, 88)" fill-opacity="1.00"/><path d="M102,3L125,3L125,117L102,117Z" fill="rgb(100, 86, 85)" fill-opacity="0.54"/><path d="M355,166L370,166L370,191L355,191Z" fill="rgb(19, 26, 91)" fill-opacity="0.78"/><path d="M478,195L503,195L503,263L478,263Z" fill="rgb(149, 112, 94)" fill-opacity="0.87"/><path d="M102,41L155,41L155,62L102,62Z" fill="rgb(184, 109, 116)" fill-opacity="0.69"/><path d="M131,119L171,119L171,140L131,140Z" fill="rgb(11, 24, 0)" fill-opacity="0.69"/><path d="M23,42L40,42L40,213L23,213Z" fill="rgb(146, 84, 55)" fill-opacity="0.78"/><path d="M300,31L316,31L316,177L300,177Z" fill="rgb(89, 72, 100)" fill-opacity="0.62"/><path d="M386,148L394,148L394,220L386,220Z" fill="rgb(0, 22, 82)" fill-opacity="0.53"/><path d="M298,79L358,79L358,89L298,89Z" fill="rgb(123, 107, 127)" fill-opacity="1.00"/><path d="M218,214L322,214L322,227L218,227Z" fill="rgb(201, 0, 29)" fill-opacity="0.30"/><path d="M265,199L284,199L284,242L265,242Z" fill="rgb(190, 194, 194)" fill-opacity="0.60"/><path d="M343,123L381,155L371,129Z" fill="rgb(4, 2, 54)" fill-opacity="0.69"/><path d="M407,265L390,295L393,257Z" fill="rgb(215, 250, 255)" fill-opacity="0.45"/><path d="M201,110L181,75L213,80Z" fill="rgb(57, 41, 35)" fill-opacity="0.78"/><path d="M446,170L404,194L526,268Z" fill="rgb(100, 11, 0)" fill-opacity="0.47"/><path d="M310,206L357,225L280,204Z" fill="rgb(229, 227, 245)" fill-opacity="0.67"/><path d="M187,179L235,179L235,198L187,198Z" fill="rgb(191, 151, 154)" fill-opacity="1.00"/><path d="M190,268L189,234L219,277Z" fill="rgb(30, 29, 84)" fill-opacity="0.51"/><path d="M406,113L387,123L389,94Z" fill="rgb(19, 21, 68)" fill-opacity="0.68"/><path d="M321,19L334,19L334,56L321,56Z" fill="rgb(255, 230, 202)" fill-opacity="0.45"/><path d="M399,148L449,148L449,179L399,179Z" fill="rgb(255, 254, 214)" fill-opacity="0.22"/><path d="M127,139L192,139L192,178L127,178Z" fill="rgb(174, 175, 204)" fill-opacity="0.37"/><path d="M29,247L51,247L51,261L29,261Z" fill="rgb(7, 86, 153)" fill-opacity="0.75"/><path d="M476,69L495,69L495,84L476,84Z" fill="rgb(222, 181, 100)" fill-opacity="0.46"/><path d="M318,89L313,107L399,119Z" fill="rgb(223, 146, 2)" fill-opacity="0.62"/><path d="M409,35L416,35L416,76L409,76Z" fill="rgb(241, 223, 201)" fill-opacity="0.40"/><path d="M395,90L452,90L452,109L395,109Z" fill="rgb(255, 175, 225)" fill-opacity="0.23"/><path d="M472,134L487,134L487,227L472,227Z" fill="rgb(255, 255, 208)" fill-opacity="0.17"/><path d="M415,260L491,260L491,274L415,274Z" fill="rgb(136, 29, 41)" fill-opacity="0.83"/><path d="M299,235L399,235L399,250L299,250Z" fill="rgb(255, 138, 152)" fill-opacity="0.26"/><path d="M432,203L456,203L456,216L432,216Z" fill="rgb(211, 26, 12)" fill-opacity="0.86"/><path d="M404,155L473,155L473,161L404,161Z" fill="rgb(140, 52, 35)" fill-opacity="0.97"/><path d="M166,259L195,259L195,307L166,307Z" fill="rgb(255, 216, 207)" fill-opacity="0.38"/><path d="M-10,82L25,82L25,141L-10,141Z" fill="rgb(155, 138, 134)" fill-opacity="0.38"/><path d="M413,110L508,110L508,123L413,123Z" fill="rgb(158, 72, 64)" fill-opacity="1.00"/><path d="M130,12L280,12L280,42L130,42Z" fill="rgb(97, 52, 16)" fill-opacity="0.38"/><path d="M377,42L408,42L408,56L377,56Z" fill="rgb(0, 35, 4)" fill-opacity="0.54"/><path d="M228,264L248,264L248,271L228,271Z" fill="rgb(7, 12, 64)" fill-opacity="0.79"/><path d="M285,182L269,130L264,199Z" fill="rgb(54, 25, 55)" fill-opacity="0.55"/><path d="M3,186L37,186L37,252L3,252Z" fill="rgb(204, 167, 84)" fill-opacity="0.36"/><path d="M100,214L158,213L107,196Z" fill="rgb(51, 28, 4)" fill-opacity="0.56"/><path d="M289,277L254,322L272,257Z" fill="rgb(37, 77, 52)" fill-opacity="0.89"/><path d="M87,101L105,116L139,68Z" fill="rgb(177, 161, 149)" fill-opacity="0.67"/><path d="M399,235L414,235L414,263L399,263Z" fill="rgb(64, 86, 38)" fill-opacity="1.00"/><path d="M191,193L201,193L201,222L191,222Z" fill="rgb(172, 29, 26)" fill-opacity="0.89"/><path d="M234,118L275,118L218,140Z" fill="rgb(108, 33, 36)" fill-opacity="1.00"/><path d="M16,145L30,145L30,223L16,223Z" fill="rgb(126, 59, 26)" fill-opacity="0.46"/><path d="M414,60L468,60L468,96L414,96Z" fill="rgb(91, 7, 0)" fill-opacity="0.36"/><path d="M150,75L171,75L171,107L150,107Z" fill="rgb(201, 170, 142)" fill-opacity="0.80"/><path d="M280,23L380,23L380,40L280,40Z" fill="rgb(175, 144, 113)" fill-opacity="0.33"/><path d="M269,108L307,108L307,134L269,134Z" fill="rgb(248, 195, 213)" fill-opacity="0.30"/><path d="M178,90L200,90L200,106L178,106Z" fill="rgb(78, 58, 59)" fill-opacity="0.97"/><path d="M363,189L384,189L384,211L363,211Z" fill="rgb(198, 193, 0)" fill-opacity="0.66"/><path d="M284,158L292,158L292,244L284,244Z" fill="rgb(55, 210, 255)" fill-opacity="0.21"/><path d="M301,114L307,91L271,100Z" fill="rgb(23, 0, 7)" fill-opacity="0.61"/><path d="M301,269L359,269L359,310L301,310Z" fill="rgb(211, 95, 71)" fill-opacity="0.99"/><path d="M127,114L135,78L103,119Z" fill="rgb(21, 31, 1)" fill-opacity="0.68"/><path d="M83,162L-28,127L104,157Z" fill="rgb(199, 173, 171)" fill-opacity="0.84"/><path d="M236,250L196,271L234,274Z" fill="rgb(54, 43, 1)" fill-opacity="0.41"/><path d="M403,71L410,71L410,157L403,157Z" fill="rgb(232, 248, 255)" fill-opacity="0.29"/><path d="M217,37L178,33L206,16Z" fill="rgb(28, 20, 3)" fill-opacity="0.75"/><path d="M386,228L379,210L347,215Z" fill="rgb(30, 82, 34)" fill-opacity="0.64"/><path d="M125,76L85,70L115,60Z" fill="rgb(12, 25, 21)" fill-opacity="0.65"/><path d="M226,68L295,68L295,94L226,94Z" fill="rgb(126, 101, 3)" fill-opacity="0.57"/><path d="M407,168L415,168L415,198L407,198Z" fill="rgb(53, 50, 0)" fill-opacity="0.61"/><path d="M181,9L240,-16L199,17Z" fill="rgb(255, 195, 95)" fill-opacity="0.44"/><path d="M159,14L229,-55L170,18Z" fill="rgb(26, 24, 0)" fill-opacity="0.75"/><path d="M244,31L279,31L279,40L244,40Z" fill="rgb(19, 3, 1)" fill-opacity="0.64"/><path d="M76,275L95,208L47,306Z" fill="rgb(187, 175, 128)" fill-opacity="0.69"/><path d="M154,169L170,170L165,161Z" fill="rgb(11, 0, 0)" fill-opacity="0.61"/><path d="M12,207L-46,264L4,197Z" fill="rgb(18, 20, 42)" fill-opacity="0.64"/><path d="M331,173L319,213L340,171Z" fill="rgb(159, 28, 28)" fill-opacity="0.77"/><path d="M10,171L21,171L21,202L10,202Z" fill="rgb(255, 255, 161)" fill-opacity="0.34"/><path d="M499,26L524,26L524,107L499,107Z" fill="rgb(37, 18, 8)" fill-opacity="0.69"/><path d="M454,141L519,141L519,164L454,164Z" fill="rgb(0, 29, 45)" fill-opacity="0.26"/><path d="M-25,-13L45,-13L45,22L-25,22Z" fill="rgb(47, 20, 17)" fill-opacity="0.84"/><path d="M176,124L223,124L223,136L176,136Z" fill="rgb(255, 220, 213)" fill-opacity="0.28"/><path d="M91,190L83,203L164,208Z" fill="rgb(191, 4, 0)" fill-opacity="0.55"/><path d="M178,36L235,36L235,43L178,43Z" fill="rgb(163, 119, 86)" fill-opacity="0.82"/><path d="M423,-5L409,6L416,53Z" fill="rgb(207, 192, 167)" fill-opacity="0.45"/><path d="M102,55L59,133L47,121Z" fill="rgb(210, 191, 207)" fill-opacity="0.36"/><path d="M105,170L139,170L139,181L105,181Z" fill="rgb(216, 25, 2)" fill-opacity="0.46"/><path d="M188,166L200,131L200,182Z" fill="rgb(19, 2, 25)" fill-opacity="0.42"/><path d="M63,32L102,32L102,43L63,43Z" fill="rgb(167, 147, 161)" fill-opacity="0.67"/><path d="M111,273L184,273L184,278L111,278Z" fill="rgb(219, 211, 188)" fill-opacity="0.50"/><path d="M323,68L364,68L364,81L323,81Z" fill="rgb(2, 0, 60)" fill-opacity="0.46"/><path d="M353,29L348,56L362,55Z" fill="rgb(38, 2, 0)" fill-opacity="0.72"/><path d="M415,236L444,236L444,245L415,245Z" fill="rgb(246, 254, 255)" fill-opacity="0.46"/><path d="M237,63L258,50L258,69Z" fill="rgb(255, 222, 229)" fill-opacity="0.34"/><path d="M365,170L357,138L416,208Z" fill="rgb(185, 181, 186)" fill-opacity="0.64"/><path d="M170,261L176,239L199,255Z" fill="rgb(41, 30, 1)" fill-opacity="0.38"/><path d="M228,275L188,305L272,264Z" fill="rgb(249, 237, 228)" fill-opacity="0.53"/><path d="M468,212L476,203L486,225Z" fill="rgb(188, 7, 2)" fill-opacity="0.59"/><path d="M159,197L188,238L148,248Z" fill="rgb(254, 234, 196)" fill-opacity="0.32"/><path d="M457,192L461,179L476,185Z" fill="rgb(244, 233, 199)" fill-opacity="0.34"/><path d="M404,118L388,264L401,197Z" fill="rgb(217, 211, 230)" fill-opacity="0.65"/><path d="M456,44L425,45L425,65Z" fill="rgb(180, 151, 103)" fill-opacity="0.74"/><path d="M337,132L350,126L334,121Z" fill="rgb(14, 5, 51)" fill-opacity="0.70"/><path d="M174,255L166,246L180,246Z" fill="rgb(241, 224, 220)" fill-opacity="0.58"/><path d="M231,262L216,284L216,261Z" fill="rgb(190, 167, 43)" fill-opacity="0.93"/><path d="M382,32L378,16L547,38Z" fill="rgb(27, 5, 0)" fill-opacity="0.37"/><path d="M122,138L135,118L94,114Z" fill="rgb(230, 252, 203)" fill-opacity="0.34"/><path d="M429,238L283,203L382,231Z" fill="rgb(204, 205, 213)" fill-opacity="0.89"/><path d="M323,106L304,114L324,123Z" fill="rgb(9, 0, 102)" fill-opacity="0.67"/><path d="M196,211L187,190L175,222Z" fill="rgb(200, 198, 184)" fill-opacity="0.65"/><path d="M293,143L332,8L301,132Z" fill="rgb(197, 181, 197)" fill-opacity="0.83"/><path d="M260,97L218,83L217,90Z" fill="rgb(35, 13, 12)" fill-opacity="0.78"/><path d="M489,137L486,146L414,123Z" fill="rgb(225, 232, 201)" fill-opacity="0.39"/><path d="M151,139L116,169L172,145Z" fill="rgb(203, 183, 197)" fill-opacity="0.50"/><path d="M448,108L477,108L477,113L448,113Z" fill="rgb(188, 167, 159)" fill-opacity="0.74"/><path d="M383,150L398,150L398,175L383,175Z" fill="rgb(36, 29, 57)" fill-opacity="0.88"/><path d="M154,96L147,112L131,104Z" fill="rgb(222, 204, 200)" fill-opacity="0.67"/><path d="M291,144L315,144L315,160L291,160Z" fill="rgb(177, 161, 170)" fill-opacity="0.72"/><path d="M418,244L439,244L439,253L418,253Z" fill="rgb(20, 0, 118)" fill-opacity="0.41"/><path d="M414,253L500,253L500,257L414,257Z" fill="rgb(200, 182, 171)" fill-opacity="0.77"/><path d="M19,177L60,177L60,185L19,185Z" fill="rgb(67, 61, 37)" fill-opacity="0.79"/><path d="M223,48L220,80L177,186Z" fill="rgb(192, 174, 181)" fill-opacity="0.81"/><path d="M341,72L328,33L349,49Z" fill="rgb(255, 215, 58)" fill-opacity="0.31"/><path d="M145,247L166,247L166,273L145,273Z" fill="rgb(254, 59, 44)" fill-opacity="0.45"/><path d="M103,158L94,145L140,152Z" fill="rgb(39, 0, 0)" fill-opacity="0.53"/><path d="M376,98L390,118L370,117Z" fill="rgb(206, 168, 10)" fill-opacity="0.91"/><path d="M66,180L39,210L45,220Z" fill="rgb(246, 232, 197)" fill-opacity="0.50"/><path d="M243,13L217,8L263,-94Z" fill="rgb(11, 3, 3)" fill-opacity="0.56"/><path d="M456,148L452,155L473,159Z" fill="rgb(225, 186, 157)" fill-opacity="0.47"/><path d="M261,238L269,220L237,230Z" fill="rgb(209, 4, 13)" fill-opacity="0.51"/><path d="M52,134L92,144L104,115Z" fill="rgb(219, 175, 84)" fill-opacity="0.47"/><path d="M-18,52L109,52L109,60L-18,60Z" fill="rgb(156, 0, 0)" fill-opacity="0.35"/><path d="M283,24L295,24L295,60L283,60Z" fill="rgb(255, 251, 246)" fill-opacity="0.23"/><path d="M85,180L136,180L136,193L85,193Z" fill="rgb(183, 255, 196)" fill-opacity="0.20"/><path d="M38,135L57,135L57,143L38,143Z" fill="rgb(0, 28, 37)" fill-opacity="0.47"/><path d="M356,271L367,297L398,284Z" fill="rgb(173, 181, 172)" fill-opacity="0.62"/><path d="M314,138L300,135L295,153Z" fill="rgb(23, 12, 2)" fill-opacity="0.61"/><path d="M330,225L362,225L362,239L330,239Z" fill="rgb(157, 2, 0)" fill-opacity="0.49"/><path d="M220,212L244,212L244,225L220,225Z" fill="rgb(197, 0, 0)" fill-opacity="0.51"/><path d="M382,150L381,163L394,159Z" fill="rgb(184, 131, 93)" fill-opacity="0.60"/><path d="M377,44L361,55L371,75Z" fill="rgb(241, 218, 198)" fill-opacity="0.50"/><path d="M415,136L372,139L372,119Z" fill="rgb(221, 158, 99)" fill-opacity="0.46"/><path d="M335,215L312,208L342,187Z" fill="rgb(46, 45, 33)" fill-opacity="0.45"/><path d="M86,126L64,123L103,103Z" fill="rgb(73, 2, 6)" fill-opacity="0.47"/><path d="M310,153L300,196L324,149Z" fill="rgb(2, 4, 41)" fill-opacity="0.50"/><path d="M292,280L269,253L295,255Z" fill="rgb(184, 88, 23)" fill-opacity="0.76"/><path d="M320,217L299,201L308,195Z" fill="rgb(210, 200, 211)" fill-opacity="0.73"/><path d="M394,177L398,177L398,283L394,283Z" fill="rgb(224, 240, 255)" fill-opacity="0.42"/><path d="M219,159L220,190L190,183Z" fill="rgb(226, 231, 245)" fill-opacity="0.36"/><path d="M75,178L89,160L98,162Z" fill="rgb(183, 32, 3)" fill-opacity="0.58"/><path d="M44,204L57,187L36,195Z" fill="rgb(23, 5, 2)" fill-opacity="0.62"/><path d="M145,79L139,101L151,96Z" fill="rgb(46, 18, 0)" fill-opacity="0.47"/><path d="M372,227L366,260L394,256Z" fill="rgb(195, 63, 47)" fill-opacity="0.77"/><path d="M129,253L86,224L142,240Z" fill="rgb(195, 198, 147)" fill-opacity="0.54"/><path d="M209,247L249,247L249,254L209,254Z" fill="rgb(255, 249, 255)" fill-opacity="0.31"/><path d="M27,151L61,151L61,168L27,168Z" fill="rgb(149, 0, 2)" fill-opacity="0.41"/><path d="M485,1L504,1L504,66L485,66Z" fill="rgb(91, 39, 24)" fill-opacity="0.84"/><path d="M132,107L133,113L142,110Z" fill="rgb(0, 3, 13)" fill-opacity="0.74"/><path d="M301,27L296,71L314,69Z" fill="rgb(51, 9, 16)" fill-opacity="0.56"/><path d="M333,246L339,234L337,257Z" fill="rgb(253, 255, 242)" fill-opacity="0.45"/><path d="M30,218L40,218L40,246L30,246Z" fill="rgb(232, 255, 239)" fill-opacity="0.27"/><path d="M214,176L265,176L265,186L214,186Z" fill="rgb(115, 106, 0)" fill-opacity="0.37"/><path d="M156,227L113,232L150,241Z" fill="rgb(108, 86, 82)" fill-opacity="1.00"/><path d="M229,175L210,131L201,136Z" fill="rgb(75, 45, 48)" fill-opacity="0.99"/><path d="M269,265L242,373L243,271Z" fill="rgb(217, 202, 193)" fill-opacity="0.79"/><path d="M123,76L81,65L104,93Z" fill="rgb(0, 24, 32)" fill-opacity="0.35"/><path d="M111,57L128,73L142,43Z" fill="rgb(165, 166, 183)" fill-opacity="0.52"/><path d="M180,47L150,44L174,30Z" fill="rgb(121, 18, 18)" fill-opacity="0.87"/><path d="M93,7L126,7L126,26L93,26Z" fill="rgb(255, 134, 44)" fill-opacity="0.24"/><path d="M299,259L312,259L304,271Z" fill="rgb(229, 218, 205)" fill-opacity="0.63"/><path d="M275,217L316,64L287,185Z" fill="rgb(198, 185, 202)" fill-opacity="0.99"/><path d="M259,206L171,181L259,201Z" fill="rgb(190, 100, 80)" fill-opacity="0.66"/><path d="M390,-2L406,-2L406,33L390,33Z" fill="rgb(116, 17, 30)" fill-opacity="0.68"/><path d="M129,255L141,255L141,280L129,280Z" fill="rgb(212, 200, 153)" fill-opacity="0.67"/><path d="M242,133L277,122L258,162Z" fill="rgb(199, 172, 161)" fill-opacity="0.74"/><path d="M427,77L459,77L459,105L427,105Z" fill="rgb(156, 66, 47)" fill-opacity="0.55"/><path d="M73,80L59,110L55,87Z" fill="rgb(83, 24, 35)" fill-opacity="0.75"/><path d="M48,240L68,240L68,248L48,248Z" fill="rgb(4, 103, 168)" fill-opacity="0.46"/><path d="M335,38L363,59L331,23Z" fill="rgb(77, 28, 6)" fill-opacity="0.58"/><path d="M301,-11L224,18L253,33Z" fill="rgb(157, 112, 80)" fill-opacity="0.68"/><path d="M31,128L-74,111L42,143Z" fill="rgb(49, 53, 61)" fill-opacity="0.63"/><path d="M451,30L484,24L452,19Z" fill="rgb(178, 160, 94)" fill-opacity="0.46"/><path d="M304,136L354,139L309,118Z" fill="rgb(214, 165, 139)" fill-opacity="0.44"/><path d="M413,162L433,162L433,183L413,183Z" fill="rgb(251, 255, 237)" fill-opacity="0.27"/><path d="M29,273L102,304L9,281Z" fill="rgb(1, 87, 138)" fill-opacity="0.44"/><path d="M223,90L263,117L251,118Z" fill="rgb(243, 208, 207)" fill-opacity="0.46"/><path d="M364,94L395,103L362,102Z" fill="rgb(0, 0, 32)" fill-opacity="0.45"/><path d="M17,162L16,170L45,169Z" fill="rgb(206, 210, 159)" fill-opacity="0.50"/><path d="M440,256L468,256L468,282L440,282Z" fill="rgb(139, 43, 52)" fill-opacity="0.88"/><path d="M92,161L88,164L146,179Z" fill="rgb(195, 16, 9)" fill-opacity="0.85"/><path d="M362,171L345,209L379,179Z" fill="rgb(22, 33, 104)" fill-opacity="0.57"/><path d="M215,198L165,231L229,201Z" fill="rgb(163, 11, 12)" fill-opacity="0.67"/><path d="M103,127L138,153L110,149Z" fill="rgb(192, 7, 0)" fill-opacity="0.55"/><path d="M93,56L124,41L127,52Z" fill="rgb(168, 2, 2)" fill-opacity="0.50"/><path d="M452,219L493,219L493,244L452,244Z" fill="rgb(125, 77, 63)" fill-opacity="0.81"/><path d="M195,46L291,46L291,52L195,52Z" fill="rgb(48, 26, 39)" fill-opacity="0.34"/><path d="M437,278L439,386L478,291Z" fill="rgb(155, 162, 159)" fill-opacity="0.68"/><path d="M286,208L296,208L296,228L286,228Z" fill="rgb(0, 3, 50)" fill-opacity="0.53"/><path d="M74,215L85,205L55,192Z" fill="rgb(190, 219, 175)" fill-opacity="0.37"/><path d="M508,256L541,273L465,255Z" fill="rgb(194, 178, 156)" fill-opacity="0.74"/><path d="M482,198L498,198L498,218L482,218Z" fill="rgb(190, 176, 140)" fill-opacity="0.69"/><path d="M260,11L421,11L421,17L260,17Z" fill="rgb(183, 179, 179)" fill-opacity="0.18"/><path d="M346,221L356,172L338,154Z" fill="rgb(210, 229, 255)" fill-opacity="0.33"/><path d="M231,108L206,105L238,121Z" fill="rgb(203, 164, 160)" fill-opacity="0.60"/><path d="M200,145L214,154L200,168Z" fill="rgb(202, 170, 162)" fill-opacity="0.89"/><path d="M206,162L224,153L202,173Z" fill="rgb(38, 26, 27)" fill-opacity="0.57"/><path d="M113,154L140,154L140,171L113,171Z" fill="rgb(221, 215, 210)" fill-opacity="0.35"/><path d="M296,20L269,11L265,35Z" fill="rgb(90, 0, 5)" fill-opacity="0.59"/><path d="M333,266L304,256L396,281Z" fill="rgb(65, 62, 82)" fill-opacity="0.87"/><path d="M62,165L73,165L73,186L62,186Z" fill="rgb(213, 213, 166)" fill-opacity="0.46"/><path d="M285,211L290,212L283,221Z" fill="rgb(207, 180, 170)" fill-opacity="0.67"/><path d="M150,-8L123,-51L123,13Z" fill="rgb(188, 149, 128)" fill-opacity="0.67"/><path d="M282,293L296,279L317,320Z" fill="rgb(241, 253, 252)" fill-opacity="0.63"/><path d="M234,199L281,225L219,206Z" fill="rgb(215, 191, 187)" fill-opacity="0.80"/><path d="M218,218L215,230L209,218Z" fill="rgb(214, 196, 181)" fill-opacity="0.85"/><path d="M416,107L437,109L424,126Z" fill="rgb(159, 8, 1)" fill-opacity="0.50"/><path d="M213,281L204,283L217,270Z" fill="rgb(14, 0, 35)" fill-opacity="0.57"/><path d="M378,34L405,34L405,80L378,80Z" fill="rgb(94, 83, 0)" fill-opacity="0.38"/><path d="M49,145L73,111L84,152Z" fill="rgb(1, 15, 0)" fill-opacity="0.22"/><path d="M372,104L373,130L321,118Z" fill="rgb(241, 60, 87)" fill-opacity="0.34"/><path d="M232,113L242,106L249,126Z" fill="rgb(138, 6, 15)" fill-opacity="0.62"/><path d="M29,14L4,-15L-38,5Z" fill="rgb(204, 63, 26)" fill-opacity="0.37"/><path d="M9,183L-23,202L37,195Z" fill="rgb(198, 164, 107)" fill-opacity="0.83"/><path d="M177,179L193,183L171,199Z" fill="rgb(21, 54, 0)" fill-opacity="0.48"/><path d="M489,260L422,237L489,252Z" fill="rgb(195, 183, 179)" fill-opacity="0.95"/><path d="M158,23L179,34L181,16Z" fill="rgb(190, 155, 91)" fill-opacity="0.61"/><path d="M552,160L493,191L518,249Z" fill="rgb(46, 33, 3)" fill-opacity="0.48"/><path d="M510,178L503,173L496,189Z" fill="rgb(243, 219, 160)" fill-opacity="0.43"/><path d="M338,154L319,204L312,174Z" fill="rgb(198, 196, 217)" fill-opacity="0.55"/><path d="M81,243L121,243L121,276L81,276Z" fill="rgb(0, 18, 39)" fill-opacity="0.18"/><path d="M460,167L422,192L435,173Z" fill="rgb(129, 17, 7)" fill-opacity="0.68"/><path d="M322,85L249,64L258,69Z" fill="rgb(187, 168, 192)" fill-opacity="0.81"/><path d="M328,13L331,0L301,3Z" fill="rgb(63, 24, 21)" fill-opacity="0.71"/><path d="M413,221L465,179L446,178Z" fill="rgb(5, 24, 31)" fill-opacity="0.44"/><path d="M402,149L391,147L386,180Z" fill="rgb(0, 7, 53)" fill-opacity="0.59"/><path d="M63,273L60,278L32,264Z" fill="rgb(28, 16, 0)" fill-opacity="0.59"/><path d="M412,275L396,273L414,283Z" fill="rgb(14, 25, 99)" fill-opacity="0.60"/><path d="M46,75L33,111L55,94Z" fill="rgb(219, 193, 188)" fill-opacity="0.50"/><path d="M435,81L463,84L451,69Z" fill="rgb(192, 16, 2)" fill-opacity="0.86"/><path d="M159,112L173,96L170,131Z" fill="rgb(163, 110, 43)" fill-opacity="0.76"/><path d="M194,258L240,246L208,265Z" fill="rgb(223, 212, 214)" fill-opacity="0.49"/><path d="M423,6L506,6L506,19L423,19Z" fill="rgb(153, 32, 22)" fill-opacity="0.48"/><path d="M239,138L268,175L223,136Z" fill="rgb(0, 1, 27)" fill-opacity="0.48"/><path d="M186,217L147,229L150,218Z" fill="rgb(196, 161, 130)" fill-opacity="0.98"/><path d="M350,14L400,31L328,29Z" fill="rgb(54, 25, 56)" fill-opacity="0.40"/><path d="M26,118L48,133L24,85Z" fill="rgb(198, 87, 0)" fill-opacity="0.63"/><path d="M333,252L392,273L296,248Z" fill="rgb(107, 1, 31)" fill-opacity="0.57"/><path d="M161,201L138,175L164,179Z" fill="rgb(212, 12, 5)" fill-opacity="0.64"/><path d="M14,233L34,203L3,207Z" fill="rgb(103, 14, 0)" fill-opacity="0.45"/><path d="M484,196L479,180L449,198Z" fill="rgb(68, 6, 11)" fill-opacity="0.37"/><path d="M456,161L414,187L423,161Z" fill="rgb(193, 179, 163)" fill-opacity="0.76"/><path d="M151,47L182,47L182,75L151,75Z" fill="rgb(196, 102, 91)" fill-opacity="1.00"/><path d="M267,63L273,49L305,63Z" fill="rgb(218, 166, 108)" fill-opacity="0.42"/><path d="M408,221L427,221L427,228L408,228Z" fill="rgb(208, 73, 48)" fill-opacity="0.64"/><path d="M286,207L372,247L381,231Z" fill="rgb(159, 47, 28)" fill-opacity="0.76"/><path d="M178,94L174,80L190,66Z" fill="rgb(211, 182, 178)" fill-opacity="0.67"/><path d="M359,89L383,77L380,93Z" fill="rgb(201, 194, 251)" fill-opacity="0.35"/><path d="M184,145L158,154L183,167Z" fill="rgb(5, 26, 69)" fill-opacity="0.28"/><path d="M135,183L155,207L129,195Z" fill="rgb(217, 252, 192)" fill-opacity="0.28"/><path d="M76,275L93,266L88,276Z" fill="rgb(24, 9, 11)" fill-opacity="0.55"/><path d="M178,223L182,231L224,203Z" fill="rgb(188, 21, 17)" fill-opacity="0.80"/><path d="M34,240L10,288L14,251Z" fill="rgb(228, 207, 172)" fill-opacity="0.52"/><path d="M64,288L75,291L90,279Z" fill="rgb(20, 8, 11)" fill-opacity="0.62"/><path d="M385,189L406,189L406,192L385,192Z" fill="rgb(224, 207, 197)" fill-opacity="0.59"/><path d="M147,225L154,210L112,215Z" fill="rgb(47, 38, 16)" fill-opacity="0.67"/><path d="M437,63L472,84L450,50Z" fill="rgb(50, 10, 1)" fill-opacity="0.66"/><path d="M295,221L308,225L291,248Z" fill="rgb(209, 42, 31)" fill-opacity="0.84"/><path d="M458,197L484,209L493,197Z" fill="rgb(182, 156, 131)" fill-opacity="1.00"/><path d="M163,154L151,154L138,166Z" fill="rgb(76, 16, 16)" fill-opacity="0.59"/><path d="M200,223L205,239L165,236Z" fill="rgb(211, 199, 188)" fill-opacity="0.78"/><path d="M151,286L152,276L133,282Z" fill="rgb(61, 33, 111)" fill-opacity="0.63"/><path d="M430,287L396,278L454,320Z" fill="rgb(215, 222, 198)" fill-opacity="0.66"/><path d="M320,211L323,198L308,192Z" fill="rgb(18, 45, 79)" fill-opacity="0.55"/><path d="M174,285L161,278L72,345Z" fill="rgb(202, 55, 51)" fill-opacity="0.82"/><path d="M165,210L188,186L178,212Z" fill="rgb(132, 139, 3)" fill-opacity="0.61"/><path d="M100,122L112,115L99,155Z" fill="rgb(46, 32, 78)" fill-opacity="0.39"/><path d="M472,157L505,167L474,154Z" fill="rgb(187, 163, 141)" fill-opacity="0.62"/><path d="M6,30L-23,44L23,33Z" fill="rgb(190, 150, 72)" fill-opacity="0.55"/><path d="M489,169L451,159L476,181Z" fill="rgb(231, 234, 191)" fill-opacity="0.31"/><path d="M389,131L385,153L408,137Z" fill="rgb(226, 181, 124)" fill-opacity="0.47"/><path d="M254,126L284,120L291,112Z" fill="rgb(106, 6, 15)" fill-opacity="0.62"/><path d="M73,219L64,201L63,219Z" fill="rgb(18, 75, 143)" fill-opacity="0.70"/><path d="M446,20L417,18L477,41Z" fill="rgb(13, 28, 18)" fill-opacity="0.42"/><path d="M411,205L399,201L402,214Z" fill="rgb(16, 21, 22)" fill-opacity="0.64"/><path d="M477,76L485,92L462,71Z" fill="rgb(157, 17, 6)" fill-opacity="0.79"/><path d="M126,147L152,151L128,134Z" fill="rgb(185, 163, 178)" fill-opacity="0.64"/><path d="M281,203L304,184L299,165Z" fill="rgb(181, 169, 33)" fill-opacity="0.50"/><path d="M288,276L281,290L292,317Z" fill="rgb(226, 208, 177)" fill-opacity="0.54"/><path d="M419,278L455,295L416,282Z" fill="rgb(0, 13, 88)" fill-opacity="0.52"/><path d="M63,95L93,81L63,112Z" fill="rgb(193, 169, 169)" fill-opacity="0.78"/><path d="M283,92L290,92L290,107L283,107Z" fill="rgb(30, 2, 8)" fill-opacity="0.67"/><path d="M57,171L-46,146L9,137Z" fill="rgb(135, 30, 28)" fill-opacity="0.87"/><path d="M383,11L342,6L465,-156Z" fill="rgb(123, 12, 35)" fill-opacity="0.71"/><path d="M323,231L313,231L315,249Z" fill="rgb(230, 254, 249)" fill-opacity="0.42"/><path d="M373,147L363,139L393,137Z" fill="rgb(13, 0, 33)" fill-opacity="0.54"/><path d="M481,112L415,105L535,124Z" fill="rgb(178, 165, 154)" fill-opacity="0.71"/><path d="M170,201L154,215L185,121Z" fill="rgb(187, 178, 168)" fill-opacity="0.49"/><path d="M400,138L400,157L428,154Z" fill="rgb(199, 181, 181)" fill-opacity="0.60"/><path d="M274,200L245,167L236,188Z" fill="rgb(142, 126, 30)" fill-opacity="0.65"/><path d="M461,66L487,56L464,35Z" fill="rgb(165, 111, 58)" fill-opacity="0.57"/><path d="M438,144L400,134L436,138Z" fill="rgb(172, 147, 7)" fill-opacity="0.48"/><path d="M205,204L199,190L219,195Z" fill="rgb(215, 186, 183)" fill-opacity="0.99"/><path d="M391,270L412,265L414,276Z" fill="rgb(183, 180, 165)" fill-opacity="0.64"/><path d="M294,58L262,29L298,54Z" fill="rgb(5, 8, 31)" fill-opacity="0.51"/><path d="M361,47L359,83L343,76Z" fill="rgb(10, 1, 9)" fill-opacity="0.40"/><path d="M231,124L239,90L209,141Z" fill="rgb(199, 165, 150)" fill-opacity="0.53"/><path d="M106,122L135,104L122,93Z" fill="rgb(9, 14, 0)" fill-opacity="0.40"/><path d="M298,192L301,205L278,200Z" fill="rgb(28, 93, 12)" fill-opacity="0.39"/><path d="M361,111L376,98L362,97Z" fill="rgb(35, 22, 71)" fill-opacity="0.81"/><path d="M69,2L53,13L20,-19Z" fill="rgb(74, 23, 3)" fill-opacity="0.70"/><path d="M301,159L317,162L299,173Z" fill="rgb(4, 2, 51)" fill-opacity="0.62"/><path d="M466,154L481,147L446,141Z" fill="rgb(0, 9, 7)" fill-opacity="0.46"/><path d="M249,259L271,259L275,238Z" fill="rgb(213, 203, 193)" fill-opacity="0.66"/><path d="M161,162L162,169L178,173Z" fill="rgb(18, 0, 2)" fill-opacity="0.46"/><path d="M300,82L284,92L269,82Z" fill="rgb(193, 173, 11)" fill-opacity="0.53"/><path d="M471,137L450,128L446,143Z" fill="rgb(181, 161, 138)" fill-opacity="0.75"/><path d="M356,210L366,196L374,207Z" fill="rgb(223, 209, 7)" fill-opacity="0.63"/><path d="M14,208L0,247L8,253Z" fill="rgb(213, 185, 118)" fill-opacity="0.58"/><path d="M62,71L31,61L83,65Z" fill="rgb(166, 145, 168)" fill-opacity="0.57"/><path d="M182,180L271,201L173,173Z" fill="rgb(214, 212, 234)" fill-opacity="0.77"/><path d="M268,116L271,81L252,112Z" fill="rgb(55, 43, 52)" fill-opacity="0.55"/><path d="M350,246L378,246L378,258L350,258Z" fill="rgb(197, 140, 130)" fill-opacity="0.53"/><path d="M148,37L136,32L173,-12Z" fill="rgb(190, 132, 73)" fill-opacity="0.44"/><path d="M6,237L-35,247L1,212Z" fill="rgb(0, 3, 32)" fill-opacity="0.59"/><path d="M109,310L113,260L136,283Z" fill="rgb(166, 143, 119)" fill-opacity="1.00"/><path d="M333,172L340,177L344,216Z" fill="rgb(169, 25, 26)" fill-opacity="0.81"/><path d="M230,54L222,73L177,77Z" fill="rgb(193, 164, 164)" fill-opacity="0.76"/><path d="M135,42L106,46L88,34Z" fill="rgb(163, 138, 158)" fill-opacity="0.75"/><path d="M339,229L373,229L373,234L339,234Z" fill="rgb(0, 120, 77)" fill-opacity="0.27"/><path d="M263,253L264,241L215,239Z" fill="rgb(116, 140, 80)" fill-opacity="0.85"/><path d="M134,90L128,82L146,84Z" fill="rgb(11, 15, 1)" fill-opacity="0.57"/><path d="M263,174L232,149L234,145Z" fill="rgb(234, 216, 209)" fill-opacity="0.48"/><path d="M76,177L82,186L66,200Z" fill="rgb(192, 2, 0)" fill-opacity="0.56"/><path d="M411,207L425,204L420,212Z" fill="rgb(27, 40, 0)" fill-opacity="0.65"/><path d="M414,115L419,102L394,123Z" fill="rgb(181, 181, 211)" fill-opacity="0.48"/><path d="M253,163L228,158L271,180Z" fill="rgb(228, 207, 198)" fill-opacity="0.40"/><path d="M209,252L186,261L205,244Z" fill="rgb(0, 0, 39)" fill-opacity="0.40"/><path d="M385,109L401,133L408,101Z" fill="rgb(10, 19, 85)" fill-opacity="0.35"/><path d="M412,143L405,144L410,122Z" fill="rgb(18, 5, 3)" fill-opacity="0.59"/><path d="M299,-10L285,11L299,18Z" fill="rgb(44, 26, 33)" fill-opacity="0.50"/><path d="M160,38L177,43L177,31Z" fill="rgb(206, 15, 12)" fill-opacity="0.59"/><path d="M278,132L296,138L264,142Z" fill="rgb(75, 48, 66)" fill-opacity="0.51"/><path d="M267,75L271,75L255,95Z" fill="rgb(249, 221, 11)" fill-opacity="0.57"/><path d="M415,52L420,81L424,51Z" fill="rgb(42, 47, 2)" fill-opacity="0.51"/><path d="M295,244L321,244L321,250L295,250Z" fill="rgb(146, 0, 0)" fill-opacity="0.38"/><path d="M55,226L82,226L82,238L55,238Z" fill="rgb(32, 31, 14)" fill-opacity="0.25"/><path d="M155,190L115,180L133,180Z" fill="rgb(207, 18, 8)" fill-opacity="0.68"/><path d="M42,77L50,43L20,87Z" fill="rgb(149, 116, 113)" fill-opacity="0.87"/><path d="M44,43L3,4L24,38Z" fill="rgb(2, 0, 7)" fill-opacity="0.49"/><path d="M225,178L236,166L225,127Z" fill="rgb(92, 40, 37)" fill-opacity="0.51"/><path d="M479,227L524,227L524,251L479,251Z" fill="rgb(87, 50, 48)" fill-opacity="0.49"/><path d="M267,22L245,38L272,56Z" fill="rgb(64, 36, 25)" fill-opacity="0.76"/><path d="M272,250L286,250L286,262L272,262Z" fill="rgb(130, 0, 16)" fill-opacity="0.51"/><path d="M59,72L48,66L35,85Z" fill="rgb(12, 0, 18)" fill-opacity="0.40"/><path d="M464,231L449,236L520,249Z" fill="rgb(224, 52, 20)" fill-opacity="0.48"/><path d="M42,234L40,230L9,291Z" fill="rgb(40, 54, 80)" fill-opacity="0.64"/><path d="M288,78L295,78L295,82L288,82Z" fill="rgb(6, 0, 22)" fill-opacity="0.78"/><path d="M381,28L378,40L351,33Z" fill="rgb(218, 190, 139)" fill-opacity="0.56"/><path d="M25,168L14,189L47,172Z" fill="rgb(79, 85, 37)" fill-opacity="0.73"/><path d="M478,282L484,263L484,285Z" fill="rgb(224, 247, 200)" fill-opacity="0.37"/><path d="M59,154L3,133L78,152Z" fill="rgb(204, 186, 189)" fill-opacity="0.72"/><path d="M152,87L121,96L132,101Z" fill="rgb(145, 134, 66)" fill-opacity="0.56"/><path d="M43,193L52,199L48,211Z" fill="rgb(218, 177, 125)" fill-opacity="0.54"/><path d="M246,122L261,122L233,135Z" fill="rgb(1, 22, 35)" fill-opacity="0.58"/><path d="M86,225L77,249L104,229Z" fill="rgb(210, 204, 149)" fill-opacity="0.54"/><path d="M18,164L-6,165L7,180Z" fill="rgb(83, 61, 53)" fill-opacity="0.98"/><path d="M310,100L305,117L330,124Z" fill="rgb(23, 25, 94)" fill-opacity="0.73"/><path d="M428,84L438,87L436,80Z" fill="rgb(179, 202, 164)" fill-opacity="0.51"/><path d="M193,263L193,271L215,268Z" fill="rgb(3, 12, 103)" fill-opacity="0.56"/><path d="M109,103L108,99L94,94Z" fill="rgb(35, 29, 39)" fill-opacity="0.69"/><path d="M324,31L304,30L315,63Z" fill="rgb(100, 66, 62)" fill-opacity="0.97"/><path d="M489,306L527,265L483,270Z" fill="rgb(108, 1, 19)" fill-opacity="0.65"/><path d="M392,249L378,247L387,230Z" fill="rgb(156, 187, 192)" fill-opacity="0.42"/><path d="M228,256L233,266L237,248Z" fill="rgb(11, 3, 71)" fill-opacity="0.57"/><path d="M383,210L392,188L392,230Z" fill="rgb(0, 19, 55)" fill-opacity="0.54"/><path d="M424,191L424,206L406,203Z" fill="rgb(149, 180, 22)" fill-opacity="0.54"/><path d="M356,155L353,161L379,195Z" fill="rgb(16, 17, 44)" fill-opacity="0.56"/><path d="M124,16L114,3L118,-17Z" fill="rgb(32, 1, 21)" fill-opacity="0.55"/><path d="M184,103L175,103L187,73Z" fill="rgb(32, 17, 26)" fill-opacity="0.64"/><path d="M85,114L80,120L80,111Z" fill="rgb(192, 169, 177)" fill-opacity="0.79"/><path d="M394,69L361,74L382,59Z" fill="rgb(0, 53, 8)" fill-opacity="0.39"/><path d="M57,84L71,81L49,72Z" fill="rgb(249, 224, 224)" fill-opacity="0.43"/><path d="M445,111L510,120L502,140Z" fill="rgb(144, 47, 39)" fill-opacity="1.00"/><path d="M388,266L369,260L391,256Z" fill="rgb(232, 176, 155)" fill-opacity="0.59"/><path d="M353,113L376,117L357,107Z" fill="rgb(216, 203, 13)" fill-opacity="0.67"/><path d="M482,159L492,131L488,160Z" fill="rgb(15, 0, 9)" fill-opacity="0.67"/><path d="M394,266L347,260L391,271Z" fill="rgb(224, 4, 2)" fill-opacity="0.55"/><path d="M377,60L421,62L377,53Z" fill="rgb(236, 211, 8)" fill-opacity="0.37"/><path d="M87,94L77,105L92,97Z" fill="rgb(14, 18, 43)" fill-opacity="0.78"/><path d="M77,88L89,80L52,95Z" fill="rgb(104, 29, 35)" fill-opacity="0.81"/><path d="M361,237L354,223L357,268Z" fill="rgb(171, 49, 36)" fill-opacity="0.81"/><path d="M38,207L21,200L44,220Z" fill="rgb(70, 24, 0)" fill-opacity="0.61"/><path d="M296,226L275,246L280,217Z" fill="rgb(0, 46, 31)" fill-opacity="0.30"/><path d="M64,281L39,279L38,268Z" fill="rgb(177, 153, 2)" fill-opacity="0.63"/><path d="M26,79L-62,54L39,61Z" fill="rgb(209, 45, 24)" fill-opacity="0.41"/><path d="M310,265L350,278L335,300Z" fill="rgb(226, 128, 102)" fill-opacity="0.74"/><path d="M372,155L351,133L372,148Z" fill="rgb(205, 198, 204)" fill-opacity="0.65"/><path d="M60,117L60,95L63,107Z" fill="rgb(38, 0, 21)" fill-opacity="0.69"/><path d="M305,114L296,154L306,121Z" fill="rgb(21, 10, 13)" fill-opacity="0.46"/><path d="M316,78L371,91L317,62Z" fill="rgb(99, 76, 145)" fill-opacity="0.46"/><path d="M131,270L119,290L116,242Z" fill="rgb(91, 65, 67)" fill-opacity="0.35"/><path d="M503,161L566,238L510,150Z" fill="rgb(11, 1, 11)" fill-opacity="0.78"/><path d="M209,269L195,299L179,284Z" fill="rgb(222, 182, 172)" fill-opacity="0.55"/><path d="M264,174L262,160L279,188Z" fill="rgb(165, 26, 32)" fill-opacity="0.77"/><path d="M501,108L422,98L405,92Z" fill="rgb(190, 189, 194)" fill-opacity="0.49"/><path d="M89,219L74,231L82,233Z" fill="rgb(13, 66, 130)" fill-opacity="0.76"/><path d="M477,115L471,134L465,129Z" fill="rgb(177, 8, 0)" fill-opacity="0.78"/><path d="M110,-21L87,-6L92,20Z" fill="rgb(164, 42, 3)" fill-opacity="0.74"/><path d="M475,262L482,302L466,278Z" fill="rgb(138, 8, 16)" fill-opacity="0.71"/><path d="M306,286L305,264L322,264Z" fill="rgb(236, 31, 21)" fill-opacity="0.51"/><path d="M323,13L339,24L277,33Z" fill="rgb(182, 142, 116)" fill-opacity="0.69"/><path d="M279,23L276,6L267,10Z" fill="rgb(138, 17, 12)" fill-opacity="0.64"/><path d="M304,145L309,155L334,128Z" fill="rgb(189, 170, 178)" fill-opacity="0.98"/><path d="M136,268L125,258L164,257Z" fill="rgb(209, 168, 134)" fill-opacity="0.72"/><path d="M86,241L86,257L99,247Z" fill="rgb(30, 1, 8)" fill-opacity="0.43"/><path d="M309,155L303,159L327,161Z" fill="rgb(179, 160, 174)" fill-opacity="0.76"/><path d="M113,247L102,269L97,255Z" fill="rgb(171, 134, 123)" fill-opacity="0.59"/><path d="M281,76L226,65L229,61Z" fill="rgb(33, 17, 9)" fill-opacity="0.75"/><path d="M464,274L467,267L466,276Z" fill="rgb(207, 239, 214)" fill-opacity="0.52"/><path d="M21,93L32,112L37,78Z" fill="rgb(187, 25, 0)" fill-opacity="0.63"/><path d="M289,111L276,116L273,101Z" fill="rgb(205, 176, 182)" fill-opacity="0.57"/><path d="M1,335L27,285L9,279Z" fill="rgb(255, 206, 172)" fill-opacity="0.34"/><path d="M254,43L243,56L242,44Z" fill="rgb(218, 174, 132)" fill-opacity="0.57"/><path d="M87,268L87,263L57,283Z" fill="rgb(208, 198, 144)" fill-opacity="0.64"/><path d="M406,134L410,126L424,126Z" fill="rgb(26, 16, 26)" fill-opacity="0.82"/><path d="M330,59L336,65L344,55Z" fill="rgb(217, 194, 192)" fill-opacity="0.55"/><path d="M423,-2L412,26L409,95Z" fill="rgb(176, 152, 143)" fill-opacity="0.81"/><path d="M169,107L201,107L201,117L169,117Z" fill="rgb(146, 117, 136)" fill-opacity="0.81"/><path d="M172,133L193,133L193,146L172,146Z" fill="rgb(199, 172, 132)" fill-opacity="0.79"/><path d="M232,132L230,137L247,136Z" fill="rgb(197, 0, 0)" fill-opacity="0.48"/><path d="M418,126L394,122L395,115Z" fill="rgb(198, 184, 196)" fill-opacity="0.49"/><path d="M98,35L122,37L112,29Z" fill="rgb(35, 32, 23)" fill-opacity="0.61"/><path d="M96,64L119,61L93,55Z" fill="rgb(188, 202, 218)" fill-opacity="0.39"/><path d="M12,10L29,23L-35,24Z" fill="rgb(0, 0, 8)" fill-opacity="0.69"/><path d="M449,34L471,39L392,39Z" fill="rgb(175, 153, 101)" fill-opacity="0.62"/><path d="M258,85L249,79L257,70Z" fill="rgb(252, 219, 4)" fill-opacity="0.55"/><path d="M229,97L278,104L236,93Z" fill="rgb(176, 143, 134)" fill-opacity="0.85"/><path d="M139,151L123,153L127,157Z" fill="rgb(43, 0, 0)" fill-opacity="0.57"/><path d="M441,280L405,272L441,284Z" fill="rgb(221, 234, 209)" fill-opacity="0.54"/><path d="M348,120L355,108L355,89Z" fill="rgb(63, 5, 53)" fill-opacity="0.69"/><path d="M395,84L418,99L388,94Z" fill="rgb(200, 169, 157)" fill-opacity="0.58"/><path d="M421,218L425,209L451,229Z" fill="rgb(188, 187, 170)" fill-opacity="0.53"/><path d="M327,67L323,78L339,67Z" fill="rgb(80, 18, 18)" fill-opacity="0.64"/><path d="M438,176L452,170L421,200Z" fill="rgb(90, 17, 11)" fill-opacity="0.81"/><path d="M46,5L70,5L70,30L46,30Z" fill="rgb(255, 177, 26)" fill-opacity="0.16"/><path d="M457,278L451,277L460,261Z" fill="rgb(203, 234, 202)" fill-opacity="0.39"/><path d="M446,114L438,111L432,128Z" fill="rgb(183, 13, 5)" fill-opacity="0.76"/><path d="M93,204L110,217L59,200Z" fill="rgb(213, 203, 133)" fill-opacity="0.51"/><path d="M185,245L172,240L180,251Z" fill="rgb(4, 0, 54)" fill-opacity="0.56"/><path d="M40,263L53,265L31,242Z" fill="rgb(38, 93, 139)" fill-opacity="0.98"/><path d="M93,282L114,304L63,292Z" fill="rgb(215, 214, 150)" fill-opacity="0.61"/><path d="M348,38L335,47L344,25Z" fill="rgb(252, 214, 136)" fill-opacity="0.36"/><path d="M314,227L376,244L310,232Z" fill="rgb(254, 26, 11)" fill-opacity="0.43"/><path d="M97,212L102,226L90,225Z" fill="rgb(32, 4, 14)" fill-opacity="0.40"/><path d="M139,163L201,182L134,174Z" fill="rgb(191, 191, 202)" fill-opacity="0.62"/><path d="M42,106L58,90L56,100Z" fill="rgb(10, 0, 48)" fill-opacity="0.61"/><path d="M213,226L231,234L268,241Z" fill="rgb(229, 218, 204)" fill-opacity="0.60"/><path d="M327,106L319,133L348,114Z" fill="rgb(184, 73, 88)" fill-opacity="0.50"/><path d="M144,6L134,7L145,-2Z" fill="rgb(2, 12, 24)" fill-opacity="0.45"/><path d="M119,134L116,137L108,128Z" fill="rgb(36, 38, 97)" fill-opacity="0.51"/><path d="M364,44L344,37L349,56Z" fill="rgb(42, 10, 2)" fill-opacity="0.62"/><path d="M241,176L226,161L233,179Z" fill="rgb(226, 203, 203)" fill-opacity="0.44"/><path d="M379,113L353,116L385,122Z" fill="rgb(187, 9, 0)" fill-opacity="0.47"/><path d="M247,226L257,197L246,238Z" fill="rgb(194, 163, 160)" fill-opacity="0.99"/><path d="M454,117L459,117L451,136Z" fill="rgb(181, 159, 139)" fill-opacity="0.82"/><path d="M311,239L308,224L297,245Z" fill="rgb(201, 180, 166)" fill-opacity="0.65"/><path d="M474,215L447,186L452,204Z" fill="rgb(18, 0, 41)" fill-opacity="0.59"/><path d="M407,42L415,34L383,43Z" fill="rgb(165, 133, 21)" fill-opacity="0.69"/><path d="M113,239L118,246L126,217Z" fill="rgb(188, 174, 136)" fill-opacity="0.95"/><path d="M404,83L404,70L383,83Z" fill="rgb(85, 51, 54)" fill-opacity="0.80"/><path d="M505,125L510,108L498,107Z" fill="rgb(151, 123, 108)" fill-opacity="0.85"/><path d="M255,95L256,89L239,97Z" fill="rgb(59, 24, 8)" fill-opacity="0.59"/><path d="M446,20L442,19L453,8Z" fill="rgb(190, 225, 159)" fill-opacity="0.39"/><path d="M320,11L260,26L314,18Z" fill="rgb(87, 1, 1)" fill-opacity="0.51"/><path d="M99,23L64,26L101,34Z" fill="rgb(35, 45, 52)" fill-opacity="0.49"/><path d="M90,171L100,176L95,187Z" fill="rgb(181, 26, 1)" fill-opacity="0.59"/><path d="M51,210L28,203L29,195Z" fill="rgb(203, 174, 128)" fill-opacity="0.85"/><path d="M-45,280L7,292L11,272Z" fill="rgb(194, 13, 1)" fill-opacity="0.62"/><path d="M217,214L229,203L208,213Z" fill="rgb(226, 216, 211)" fill-opacity="0.57"/></svg>